<?xml version="1.0" encoding="UTF-8" standalone="no"?>
<!-- Created with Inkscape (http://www.inkscape.org/) -->

<svg
   xmlns:dc="http://purl.org/dc/elements/1.1/"
   xmlns:cc="http://creativecommons.org/ns#"
   xmlns:rdf="http://www.w3.org/1999/02/22-rdf-syntax-ns#"
   xmlns:svg="http://www.w3.org/2000/svg"
   xmlns="http://www.w3.org/2000/svg"
   version="1.1"
   width="2742.1233"
   height="1220.9845"
   id="svg3973">
  <defs
     id="defs3975" />
  <metadata
     id="metadata3978">
    <rdf:RDF>
      <cc:Work
         rdf:about="">
        <dc:format>image/svg+xml</dc:format>
        <dc:type
           rdf:resource="http://purl.org/dc/dcmitype/StillImage" />
        <dc:title></dc:title>
      </cc:Work>
    </rdf:RDF>
  </metadata>
  <g
     transform="translate(1431.0617,378.13009)"
     id="layer1">
    <g
       transform="matrix(0.69916076,0,0,0.69916076,-438.60542,7205.5531)"
       id="g5157"
       style="display:inline">
      <path
         d="m -1027.1235,-9566.6084 c -0.285,-24.0179 86.52795,-176.1549 193.56595,-339.2165 216.09798,-329.2031 483.74998,-656.0891 638.05698,-779.2631 112.259003,-89.61 296.247,-160.178 296.247,-113.625 0,9.348 -21.739997,66.201 -48.311997,126.341 -75.399,170.653 -88.401,207.969 -114.757,329.352 -36.099,166.257 -32.864,258.806 10.046,287.458 5.936,3.963 29.179,7.274 51.65099983,7.357 112.99199717,0.415 314.73899717,-167.794 516.22099717,-430.405 40.426,-52.691 86.255,-100.991 107.034,-112.804 36.021,-20.478 36.64,-20.496 71.067,-1.974 104.781,56.371 168.548,277.09 191.557,663.0409 6.272,105.2011 13.597,198.9996 16.278,208.4408 6.455,22.7304 25.804,21.7356 47.693,-2.4522 18.528,-20.4733 34.332,-25.6243 34.332,-11.19 0,11.8563 -78.271,99.4709 -88.863,99.4709 -13.768,0 -37.658,-53.0904 -49.437,-109.861 -5.932,-28.5931 -34.868,-140.2683 -64.302,-248.1671 -63.158,-231.5243 -142.039,-411.9173 -184.815,-422.6533 -45.619,-11.45 -104.217,33.408 -313.926,240.318 -227.833997,224.7919 -286.2199972,267.4871 -367.468997,268.7128 -81.133003,1.224 -124.632003,-45.2579 -134.650003,-143.8828 -6.405,-63.069 21.538,-184.429 75.336,-327.192 49.505003,-131.371 50.427003,-149.925 7.448,-149.801 -70.984,0.205 -178.126,84.968 -396.703,313.844 -181.663,190.221 -288.09798,331.8268 -471.81793,627.7274 -11.723,18.8823 -21.39,28.0733 -21.481,20.4242 z m 75.97595,454.5012 c -183.23695,-41.0146 -333.07895,-159.3051 -413.52295,-326.4483 -42.47,-88.2419 -54.826,-144.2554 -54.826,-248.5501 0,-160.4098 52.368,-282.6975 172.051,-401.7704 85.433,-84.997 163.24,-130.208 273.42495,-158.877 71.894,-18.705 156.075,-23.117 238.43898,-7.373 54.317,10.384 60.185,13.507 52.468,27.927 -7.281,13.603 -20.884,16.207 -83.88598,16.055 -41.358,-0.1 -66.06,7.054 -88.228,13.12 -114.319,31.282 -225.13895,109.042 -313.54795,220.0093 -61.559,77.2643 -87.087,125.2711 -115.364,216.9448 -29.473,95.5517 -29.399,250.741 0.16,336.1515 61.312,177.1635 203.341,281.8326 382.42995,281.8326 192.61398,0 388.34898,-130.6708 490.84698,-327.6832 50.068,-96.238 72.596,-171.59 79.197,-264.9061 9.676,-136.7771 -45.037,-265.4389 -129.671,-369.3459 -22.166,-27.214 -36.491,-49.48 -31.833,-49.48 4.658,0 33.372,24.903 63.809,55.34 138.969,138.9699 224.519,355.494 188.081,528.7806 -42.588,202.537 -201.961,378.5638 -399.879,441.6654 -94.72,30.1992 -219.56298,36.8842 -310.14898,16.6078 z m 1699.94298,3.9235 c -134.337,-12.7009 -265.522,-76.2627 -362.989,-175.8754 -126.105,-128.8818 -185.32,-298.3345 -160.393,-458.9926 23.636,-152.3383 82.651,-274.0653 178.804,-368.8113 48.793,-48.079 165.632,-122.187 192.64,-122.187 7.007,0 38.296,62.028 38.296,75.919 0,1.551 -18.038,15.775 -40.084,31.607 -90.768,65.185 -201.328,252.3695 -229.144,387.9532 -20.156,98.2534 -13.484,242.4948 14.652,316.745 64.593,170.4566 197.007,265.3407 368.218,263.8548 293.86597,-2.5502 559.36507,-323.3201 537.50207,-649.3978 -16.896,-251.9842 -104.7931,-389.8792 -314.56607,-397.9142 -55.24,-2.116 -44.78,-15.813 -44.78,-46.201 0,-12.097 29.248,-0.895 72.731,7.485 162.51797,31.318 272.13107,138.02 343.92007,284.6649 48.637,99.3532 64.318,165.3215 64.318,270.5858 0,165.0458 -53.395,292.2287 -171.8721,409.3889 -132.623,131.1492 -297.59997,189.1065 -487.25297,171.1757 z m -286.654,-1610.0323 -14.854,-40.077 37.263,-19.01 c 48.433,-24.709 187.074,-59.69 267.081,-67.388 73.671,-7.088 108.88,3.2 114.673,33.509 4.864,25.442 -7.437,77.104 -20.243,85.019 -5.062,3.128 -35.987,-1.029 -68.721,-9.239 -48.622,-12.194 -70.746,-13.184 -120.855,-5.41 -66.013,10.243 -130.074,30.295 -160.526,50.248 -17.806,11.667 -19.871,9.978 -33.818,-27.652 z"
         id="path3984"
         style="fill:#000000;stroke:none" />
      <g
         transform="matrix(0.60406074,0,0,1.1419821,6035.636,-13588.552)"
         id="flowRoot5347"
         style="font-size:400px;font-style:normal;font-variant:normal;font-weight:normal;font-stretch:normal;line-height:125%;letter-spacing:0px;word-spacing:0px;fill:#000000;fill-opacity:1;stroke:none;font-family:Gulim;-inkscape-font-specification:Gulim">
        <path
           d="m -8089.9375,2665.354 c 7.8124,1e-4 14.3228,-0.3579 19.5313,-1.0742 5.2081,-0.716 9.7003,-1.8553 13.4765,-3.418 8.0728,-3.255 14.2577,-7.9425 18.5547,-14.0625 4.2967,-6.1196 6.4451,-13.4764 6.4453,-22.0703 -2e-4,-4.9477 -1.3023,-9.505 -3.9062,-13.6719 -2.6044,-4.1664 -7.0315,-7.4216 -13.2813,-9.7656 -3.1252,-1.1717 -7.0314,-2.0831 -11.7187,-2.7344 -4.6877,-0.6508 -10.1564,-0.9763 -16.4063,-0.9765 l -33.2031,0 -14.0625,67.7734 z m -42.7734,40.0391 -15.4297,73.6328 24.8047,0 c 22.0051,0 38.6717,-2.2135 50,-6.6407 11.1977,-4.2968 19.2706,-10.1236 24.2187,-17.4804 4.9478,-7.3567 7.4217,-15.2018 7.4219,-23.5352 -2e-4,-5.4686 -1.4325,-10.1887 -4.2969,-14.1601 -2.8647,-3.9713 -7.5522,-6.9986 -14.0625,-9.0821 -2.9949,-1.0415 -6.5431,-1.7577 -10.6445,-2.1484 -4.1017,-0.3905 -9.2775,-0.5858 -15.5274,-0.5859 z m 148.6328,-84.375 c -3e-4,15.4949 -4.0042,28.4181 -12.0117,38.7695 -8.0081,10.3517 -19.4338,18.6525 -34.2774,24.9023 l 0,0.7813 c 5.8592,1.5626 11.0675,3.8738 15.625,6.9336 4.5571,3.06 8.3982,6.6407 11.5235,10.7422 3.1247,4.1016 5.4685,8.6915 7.0312,13.7695 1.5623,5.0782 2.3435,10.3516 2.3438,15.8203 -3e-4,17.448 -5.3063,32.9102 -15.918,46.3867 -10.6122,13.4766 -26.465,23.7305 -47.5586,30.7617 -9.3752,2.9948 -20.0197,5.2735 -31.9336,6.836 -11.9142,1.5625 -25.4233,2.3437 -40.5273,2.3437 l -74.2188,0 54.1016,-261.3281 72.8515,0 c 10.4165,3e-4 19.6939,0.5862 27.8321,1.7578 8.1378,1.1721 15.3969,2.8649 21.7773,5.0781 14.0623,4.9482 24.8045,12.3701 32.2266,22.2657 7.4216,9.896 11.1325,21.2892 11.1328,34.1797 z"
           id="path4836"
           style="font-style:oblique;font-weight:bold;letter-spacing:2.81130815px;font-family:Corbel;-inkscape-font-specification:Corbel Bold Oblique" />
        <path
           d="m -7957.4387,2819.0649 54.1016,-261.3281 47.6562,0 -54.1015,261.3281 z"
           id="path4838"
           style="font-style:oblique;font-weight:bold;letter-spacing:2.81130815px;font-family:Corbel;-inkscape-font-specification:Corbel Bold Oblique" />
        <path
           d="m -7846.8149,2819.0649 54.1016,-261.3281 47.6562,0 -24.0234,116.2109 0.7812,0 108.2032,-116.2109 58.9843,0 -124.8046,131.4453 83.0078,129.8828 -54.8828,0 -75.586,-120.7031 -0.7812,0 -25,120.7031 z"
           id="path4840"
           style="font-style:oblique;font-weight:bold;letter-spacing:2.81130815px;font-family:Corbel;-inkscape-font-specification:Corbel Bold Oblique" />
        <path
           d="m -7553.7692,2779.0259 123.2422,0 -8.2032,40.039 -170.8984,0 54.1016,-261.3281 163.8671,0 -8.3984,40.0391 -116.0156,0 -14.0625,67.5781 99.6094,0 -8.2032,40.0391 -99.6093,0 z"
           id="path4842"
           style="font-style:oblique;font-weight:bold;letter-spacing:2.81130815px;font-family:Corbel;-inkscape-font-specification:Corbel Bold Oblique" />
        <path
           d="m -7360.9188,2766.9165 52.539,0 -10.7421,52.1484 -52.5391,0 z"
           id="path4844"
           style="font-style:oblique;font-weight:bold;letter-spacing:2.81130815px;font-family:Corbel;-inkscape-font-specification:Corbel Bold Oblique" />
        <path
           d="m -7107.7169,2593.2837 c -10.5471,2e-4 -20.2476,1.8231 -29.1016,5.4687 -8.8543,3.6461 -16.8946,8.6265 -24.1211,14.9414 -7.2266,6.3153 -13.6068,13.7047 -19.1406,22.168 -5.5339,8.4637 -10.1563,17.5132 -13.8672,27.1484 -3.711,9.6356 -6.5105,19.6291 -8.3984,29.9805 -1.8881,10.3517 -2.8321,20.4754 -2.8321,30.3711 0,9.8959 1.3021,18.5873 3.9063,26.0742 2.6041,7.4871 6.3476,13.7696 11.2305,18.8477 4.8827,5.0781 10.8397,8.8867 17.8711,11.4258 7.0311,2.5391 14.9087,3.8086 23.6328,3.8086 10.5467,0 20.2472,-1.8229 29.1015,-5.4688 8.854,-3.6458 16.8944,-8.6263 24.1211,-14.9414 7.2264,-6.315 13.6066,-13.7044 19.1406,-22.168 5.5337,-8.4634 10.1561,-17.5129 13.8672,-27.1484 3.7108,-9.6353 6.5102,-19.6288 8.3985,-29.9805 1.8878,-10.3514 2.8318,-20.4751 2.832,-30.3711 -2e-4,-19.7915 -5.0458,-34.7654 -15.1367,-44.9218 -10.0914,-10.1561 -23.926,-15.2342 -41.5039,-15.2344 z m 3.3203,-40.4297 c 15.2342,3e-4 29.0688,2.1161 41.5039,6.3476 12.4347,4.2321 23.0792,10.5472 31.9336,18.9454 8.8539,8.3986 15.6898,18.8153 20.5078,31.25 4.8174,12.4351 7.2263,26.7905 7.2266,43.0664 -3e-4,10.1564 -1.0745,21.4194 -3.2227,33.789 -2.1487,12.3699 -5.6318,24.9025 -10.4492,37.5977 -4.818,12.6954 -11.068,25.0652 -18.75,37.1094 -7.6825,12.0443 -17.025,22.7213 -28.0274,32.0312 -11.0028,9.3099 -23.7957,16.7969 -38.3789,22.4609 -14.5835,5.6641 -31.185,8.4961 -49.8046,8.4961 -15.2345,0 -29.0692,-2.1158 -41.504,-6.3476 -12.4349,-4.2318 -23.0794,-10.5469 -31.9335,-18.9453 -8.8543,-8.3984 -15.6902,-18.8151 -20.5079,-31.25 -4.8177,-12.4349 -7.2265,-26.7903 -7.2265,-43.0664 0,-10.1562 1.0742,-21.4192 3.2226,-33.7891 2.1484,-12.3696 5.6315,-24.9022 10.4493,-37.5977 4.8176,-12.6951 11.0676,-25.0649 18.75,-37.1093 7.6822,-12.0441 17.0246,-22.7212 28.0273,-32.0313 11.0025,-9.3096 23.7955,-16.7966 38.3789,-22.4609 14.5832,-5.6638 31.1847,-8.4958 49.8047,-8.4961 z"
           id="path4846"
           style="font-style:oblique;font-weight:bold;letter-spacing:2.81130815px;font-family:Corbel;-inkscape-font-specification:Corbel Bold Oblique" />
        <path
           d="m -6933.226,2819.0649 -47.6562,0 54.1016,-261.3281 70.7031,0 c 11.328,3e-4 21.061,0.3909 29.1992,1.1719 8.1379,0.7815 15.2668,2.0836 21.3867,3.9062 17.1873,4.9482 29.785,12.7607 37.793,23.4375 8.0076,10.6773 12.0115,23.2424 12.0117,37.6953 -2e-4,10.5471 -1.4651,20.4429 -4.3945,29.6875 -2.9299,9.245 -7.5523,17.5783 -13.8672,25 -6.3153,7.422 -14.3882,13.8674 -24.2188,19.336 -9.8309,5.4688 -21.6473,9.7657 -35.4492,12.8906 l 0,0.7813 58.0078,107.4218 -52.7343,0 -52.3438,-101.1718 -31.6406,0 z m 29.2969,-141.2109 18.3594,0 c 8.7238,1e-4 16.5363,-0.2928 23.4375,-0.8789 6.9009,-0.5858 13.0858,-1.66 18.5547,-3.2227 12.3696,-3.3852 22.1352,-8.8865 29.2969,-16.5039 7.1612,-7.617 10.742,-17.4803 10.7421,-29.5898 -1e-4,-6.2498 -1.4324,-11.7186 -4.2968,-16.4063 -2.8648,-4.6873 -7.5523,-8.1378 -14.0625,-10.3515 -3.1252,-1.0415 -7.1616,-1.8227 -12.1094,-2.3438 -4.9481,-0.5206 -11.133,-0.781 -18.5547,-0.7812 l -34.7656,0 z"
           id="path4848"
           style="font-style:oblique;font-weight:bold;letter-spacing:2.81130815px;font-family:Corbel;-inkscape-font-specification:Corbel Bold Oblique" />
        <path
           d="m -6568.8911,2552.854 c 13.6717,3e-4 26.6925,1.2047 39.0625,3.6133 12.3695,2.4091 23.3721,5.4364 33.0078,9.082 l -8.2031,39.4531 c -10.9378,-4.0362 -21.3219,-6.9984 -31.1524,-8.8867 -9.8309,-1.8878 -19.6291,-2.8318 -29.3945,-2.832 -12.5002,2e-4 -24.1538,1.6278 -34.9609,4.8828 -10.8075,3.2554 -20.3778,7.7802 -28.711,13.5742 -8.3334,5.7945 -15.5925,12.6304 -21.7773,20.5078 -6.185,7.8778 -11.2957,16.439 -15.3321,25.6836 -4.0365,9.245 -7.0638,18.9455 -9.082,29.1016 -2.0183,10.1563 -3.0274,20.3777 -3.0273,30.664 -1e-4,21.7449 4.6874,38.1511 14.0625,49.2188 9.3749,11.0677 23.4374,16.6016 42.1875,16.6016 8.5936,0 16.6339,-0.944 24.1211,-2.8321 7.4868,-1.888 14.1274,-4.8827 19.9218,-8.9844 5.7941,-4.1015 10.7095,-9.4074 14.7461,-15.9179 4.0363,-6.5104 6.966,-14.3229 8.7891,-23.4375 l 2.5391,-13.086 -58.3985,0 8.2031,-40.039 106.25,0 -12.1093,58.3984 c -3.5159,16.797 -9.0497,30.7292 -16.6016,41.7969 -7.5523,11.0677 -16.5692,19.8893 -27.0508,26.4648 -10.4819,6.5756 -22.103,11.2305 -34.8633,13.9649 -12.7605,2.7343 -26.1069,4.1015 -40.039,4.1015 -14.4532,0 -27.767,-2.2135 -39.9414,-6.6406 -12.1746,-4.4271 -22.6889,-10.97 -31.543,-19.6289 -8.8542,-8.6588 -15.7552,-19.401 -20.7031,-32.2266 -4.948,-12.8254 -7.4219,-27.6366 -7.4219,-44.4335 0,-15.4947 1.595,-30.4361 4.7852,-44.8243 3.19,-14.3878 7.8775,-27.7993 14.0625,-40.2343 6.1848,-12.4347 13.802,-23.7629 22.8515,-33.9844 9.0494,-10.2211 19.401,-18.9776 31.0547,-26.2695 11.6536,-7.2915 24.5767,-12.923 38.7695,-16.8946 14.1926,-3.9711 29.4921,-5.9567 45.8985,-5.957 z"
           id="path4850"
           style="font-style:oblique;font-weight:bold;letter-spacing:2.81130815px;font-family:Corbel;-inkscape-font-specification:Corbel Bold Oblique" />
        <path
           d="m -6437.1736,2766.9165 52.5391,0 -10.7422,52.1484 -52.5391,0 z"
           id="path4852"
           style="font-style:oblique;font-weight:bold;letter-spacing:2.81130815px;font-family:Corbel;-inkscape-font-specification:Corbel Bold Oblique" />
        <path
           d="m -6227.917,2665.354 c 7.8124,1e-4 14.3228,-0.3579 19.5313,-1.0742 5.2081,-0.716 9.7003,-1.8553 13.4765,-3.418 8.0728,-3.255 14.2577,-7.9425 18.5547,-14.0625 4.2967,-6.1196 6.4451,-13.4764 6.4453,-22.0703 -2e-4,-4.9477 -1.3022,-9.505 -3.9062,-13.6719 -2.6044,-4.1664 -7.0315,-7.4216 -13.2813,-9.7656 -3.1251,-1.1717 -7.0314,-2.0831 -11.7187,-2.7344 -4.6877,-0.6508 -10.1564,-0.9763 -16.4063,-0.9765 l -33.2031,0 -14.0625,67.7734 z m -42.7734,40.0391 -15.4297,73.6328 24.8047,0 c 22.0051,0 38.6717,-2.2135 50,-6.6407 11.1977,-4.2968 19.2706,-10.1236 24.2187,-17.4804 4.9478,-7.3567 7.4217,-15.2018 7.4219,-23.5352 -2e-4,-5.4686 -1.4325,-10.1887 -4.2969,-14.1601 -2.8647,-3.9713 -7.5522,-6.9986 -14.0625,-9.0821 -2.9949,-1.0415 -6.5431,-1.7577 -10.6445,-2.1484 -4.1017,-0.3905 -9.2775,-0.5858 -15.5274,-0.5859 z m 148.6328,-84.375 c -2e-4,15.4949 -4.0042,28.4181 -12.0117,38.7695 -8.0081,10.3517 -19.4338,18.6525 -34.2774,24.9023 l 0,0.7813 c 5.8592,1.5626 11.0675,3.8738 15.625,6.9336 4.5571,3.06 8.3982,6.6407 11.5235,10.7422 3.1247,4.1016 5.4685,8.6915 7.0312,13.7695 1.5623,5.0782 2.3435,10.3516 2.3438,15.8203 -3e-4,17.448 -5.3062,32.9102 -15.918,46.3867 -10.6122,13.4766 -26.465,23.7305 -47.5586,30.7617 -9.3752,2.9948 -20.0197,5.2735 -31.9336,6.836 -11.9142,1.5625 -25.4233,2.3437 -40.5273,2.3437 l -74.2188,0 54.1016,-261.3281 72.8515,0 c 10.4166,3e-4 19.6939,0.5862 27.8321,1.7578 8.1378,1.1721 15.3969,2.8649 21.7773,5.0781 14.0623,4.9482 24.8045,12.3701 32.2266,22.2657 7.4216,9.896 11.1326,21.2892 11.1328,34.1797 z"
           id="path4854"
           style="font-style:oblique;font-weight:bold;letter-spacing:2.81130815px;font-family:Corbel;-inkscape-font-specification:Corbel Bold Oblique" />
        <path
           d="m -6028.426,2819.0649 21.875,-105.664 -62.5,-155.6641 49.0234,0 42.9688,109.7656 73.8281,-109.7656 54.2969,0 -110.1563,156.6406 -21.6797,104.6875 z"
           id="path4856"
           style="font-style:oblique;font-weight:bold;letter-spacing:2.81130815px;font-family:Corbel;-inkscape-font-specification:Corbel Bold Oblique" />
      </g>
    </g>
  </g>
</svg>
