<?xml version="1.0" encoding="UTF-8" standalone="no"?>
<!-- Created with Inkscape (http://www.inkscape.org/) -->

<svg
   xmlns:dc="http://purl.org/dc/elements/1.1/"
   xmlns:cc="http://creativecommons.org/ns#"
   xmlns:rdf="http://www.w3.org/1999/02/22-rdf-syntax-ns#"
   xmlns:svg="http://www.w3.org/2000/svg"
   xmlns="http://www.w3.org/2000/svg"
   version="1.1"
   width="32.072941"
   height="43.39286"
   id="svg5200">
  <defs
     id="defs5202">
    <clipPath
       id="clipPath7106">
      <path
         d="m 757.17412,523.31837 200.98982,-4.19782 4.0319,193.04557 -200.98982,4.19782 z"
         id="path7108"
         style="fill:#000000;fill-opacity:1;stroke:none" />
    </clipPath>
    <clipPath
       id="clipPath7110">
      <path
         d="m 748.39842,516.37365 200.98983,-4.19782 4.03189,193.04558 -200.98982,4.19782 z"
         id="path7112"
         style="fill:#000000;fill-opacity:1;stroke:none" />
    </clipPath>
    <clipPath
       id="clipPath7114">
      <path
         d="m 739.81213,512.71184 200.98982,-4.19782 4.0319,193.04558 -200.98982,4.19782 z"
         id="path7116"
         style="fill:#000000;fill-opacity:1;stroke:none" />
    </clipPath>
    <clipPath
       id="clipPath7118">
      <path
         d="m 737.79184,536.70289 200.98983,-4.19782 4.03189,193.04558 -200.98982,4.19782 z"
         id="path7120"
         style="fill:#000000;fill-opacity:1;stroke:none" />
    </clipPath>
    <clipPath
       id="clipPath7122">
      <path
         d="m 730.08942,533.04111 200.98982,-4.19782 4.0319,193.04558 -200.98983,4.19781 z"
         id="path7124"
         style="fill:#000000;fill-opacity:1;stroke:none" />
    </clipPath>
    <clipPath
       id="clipPath7126">
      <path
         d="m 727.05897,524.20217 200.98982,-4.19782 4.0319,193.04557 -200.98982,4.19782 z"
         id="path7128"
         style="fill:#000000;fill-opacity:1;stroke:none" />
    </clipPath>
    <clipPath
       id="clipPath7130">
      <path
         d="m 731.22584,515.7422 200.98983,-4.19782 4.0319,193.04558 -200.98983,4.19782 z"
         id="path7132"
         style="fill:#000000;fill-opacity:1;stroke:none" />
    </clipPath>
    <clipPath
       id="clipPath7134">
      <path
         d="m 425.37997,641.54116 139.19429,0 0,133.69255 -139.19429,0 z"
         id="path7136"
         style="fill:#000000;fill-opacity:1;stroke:none" />
    </clipPath>
    <clipPath
       id="clipPath7138">
      <path
         d="m 425.37997,641.54116 139.19429,0 0,133.69255 -139.19429,0 z"
         id="path7140"
         style="fill:#000000;fill-opacity:1;stroke:none" />
    </clipPath>
    <clipPath
       id="clipPath7142">
      <path
         d="m 425.37997,641.54116 139.19429,0 0,133.69255 -139.19429,0 z"
         id="path7144"
         style="fill:#000000;fill-opacity:1;stroke:none" />
    </clipPath>
    <clipPath
       id="clipPath7146">
      <path
         d="m 417.53782,638.75575 139.19428,0 0,133.69255 -139.19429,0 z"
         id="path7148"
         style="fill:#000000;fill-opacity:1;stroke:none" />
    </clipPath>
    <clipPath
       id="clipPath7150">
      <path
         d="m 425.37997,641.54116 139.19429,0 0,133.69255 -139.19429,0 z"
         id="path7152"
         style="fill:#000000;fill-opacity:1;stroke:none" />
    </clipPath>
    <clipPath
       id="clipPath7154">
      <path
         d="m 425.37997,641.54116 139.19429,0 0,133.69255 -139.19429,0 z"
         id="path7156"
         style="fill:#000000;fill-opacity:1;stroke:none" />
    </clipPath>
    <clipPath
       id="clipPath7158">
      <path
         d="m 425.37997,641.54116 139.19429,0 0,133.69255 -139.19429,0 z"
         id="path7160"
         style="fill:#000000;fill-opacity:1;stroke:none" />
    </clipPath>
    <clipPath
       id="clipPath7162">
      <path
         d="m 425.37997,641.54116 139.19429,0 0,133.69255 -139.19429,0 z"
         id="path7164"
         style="fill:#000000;fill-opacity:1;stroke:none" />
    </clipPath>
    <clipPath
       id="clipPath7166">
      <path
         d="m 425.37997,641.54116 139.19429,0 0,133.69255 -139.19429,0 z"
         id="path7168"
         style="fill:#000000;fill-opacity:1;stroke:none" />
    </clipPath>
    <clipPath
       id="clipPath7170">
      <path
         d="m 425.37997,641.54116 139.19429,0 0,133.69255 -139.19429,0 z"
         id="path7172"
         style="fill:#000000;fill-opacity:1;stroke:none" />
    </clipPath>
    <clipPath
       id="clipPath7174">
      <path
         d="m 425.37997,641.54116 139.19429,0 0,133.69255 -139.19429,0 z"
         id="path7176"
         style="fill:#000000;fill-opacity:1;stroke:none" />
    </clipPath>
    <clipPath
       id="clipPath7178">
      <path
         d="m 425.37997,641.54116 139.19429,0 0,133.69255 -139.19429,0 z"
         id="path7180"
         style="fill:#000000;fill-opacity:1;stroke:none" />
    </clipPath>
    <clipPath
       id="clipPath7182">
      <path
         d="m 425.37997,641.54116 139.19429,0 0,133.69255 -139.19429,0 z"
         id="path7184"
         style="fill:#000000;fill-opacity:1;stroke:none" />
    </clipPath>
    <clipPath
       id="clipPath7186">
      <path
         d="m 425.37997,641.54116 139.19429,0 0,133.69255 -139.19429,0 z"
         id="path7188"
         style="fill:#000000;fill-opacity:1;stroke:none" />
    </clipPath>
    <clipPath
       id="clipPath7190">
      <path
         d="m 425.37997,641.54116 139.19429,0 0,133.69255 -139.19429,0 z"
         id="path7192"
         style="fill:#000000;fill-opacity:1;stroke:none" />
    </clipPath>
    <clipPath
       id="clipPath7194">
      <path
         d="m 425.37997,641.54116 139.19429,0 0,133.69255 -139.19429,0 z"
         id="path7196"
         style="fill:#000000;fill-opacity:1;stroke:none" />
    </clipPath>
    <clipPath
       id="clipPath7198">
      <path
         d="m 425.37997,641.54116 139.19429,0 0,133.69255 -139.19429,0 z"
         id="path7200"
         style="fill:#000000;fill-opacity:1;stroke:none" />
    </clipPath>
    <clipPath
       id="clipPath7202">
      <path
         d="m 425.37997,641.54116 139.19429,0 0,133.69255 -139.19429,0 z"
         id="path7204"
         style="fill:#000000;fill-opacity:1;stroke:none" />
    </clipPath>
    <clipPath
       id="clipPath7206">
      <path
         d="m 425.37997,641.54116 139.19429,0 0,133.69255 -139.19429,0 z"
         id="path7208"
         style="fill:#000000;fill-opacity:1;stroke:none" />
    </clipPath>
    <clipPath
       id="clipPath7210">
      <path
         d="m 425.37997,641.54116 139.19429,0 0,133.69255 -139.19429,0 z"
         id="path7212"
         style="fill:#000000;fill-opacity:1;stroke:none" />
    </clipPath>
    <clipPath
       id="clipPath7214">
      <path
         d="m 425.37997,641.54116 139.19429,0 0,133.69255 -139.19429,0 z"
         id="path7216"
         style="fill:#000000;fill-opacity:1;stroke:none" />
    </clipPath>
    <clipPath
       id="clipPath7218">
      <path
         d="m 425.37997,641.54116 139.19429,0 0,133.69255 -139.19429,0 z"
         id="path7220"
         style="fill:#000000;fill-opacity:1;stroke:none" />
    </clipPath>
    <clipPath
       id="clipPath7222">
      <path
         d="m 425.37997,641.54116 139.19429,0 0,133.69255 -139.19429,0 z"
         id="path7224"
         style="fill:#000000;fill-opacity:1;stroke:none" />
    </clipPath>
    <clipPath
       id="clipPath7226">
      <path
         d="m 425.37997,641.54116 139.19429,0 0,133.69255 -139.19429,0 z"
         id="path7228"
         style="fill:#000000;fill-opacity:1;stroke:none" />
    </clipPath>
    <clipPath
       id="clipPath7230">
      <path
         d="m 425.37997,641.54116 139.19429,0 0,133.69255 -139.19429,0 z"
         id="path7232"
         style="fill:#000000;fill-opacity:1;stroke:none" />
    </clipPath>
    <clipPath
       id="clipPath7234">
      <path
         d="m 425.37997,641.54116 139.19429,0 0,133.69255 -139.19429,0 z"
         id="path7236"
         style="fill:#000000;fill-opacity:1;stroke:none" />
    </clipPath>
    <clipPath
       id="clipPath7238">
      <path
         d="m 425.37997,641.54116 139.19429,0 0,133.69255 -139.19429,0 z"
         id="path7240"
         style="fill:#000000;fill-opacity:1;stroke:none" />
    </clipPath>
    <clipPath
       id="clipPath7242">
      <path
         d="m 425.37997,641.54116 139.19429,0 0,133.69255 -139.19429,0 z"
         id="path7244"
         style="fill:#000000;fill-opacity:1;stroke:none" />
    </clipPath>
    <clipPath
       id="clipPath7246">
      <path
         d="m 425.37997,641.54116 139.19429,0 0,133.69255 -139.19429,0 z"
         id="path7248"
         style="fill:#000000;fill-opacity:1;stroke:none" />
    </clipPath>
    <clipPath
       id="clipPath7250">
      <path
         d="m 425.37997,641.54116 139.19429,0 0,133.69255 -139.19429,0 z"
         id="path7252"
         style="fill:#000000;fill-opacity:1;stroke:none" />
    </clipPath>
    <clipPath
       id="clipPath7254">
      <path
         d="m 425.37997,641.54116 139.19429,0 0,133.69255 -139.19429,0 z"
         id="path7256"
         style="fill:#000000;fill-opacity:1;stroke:none" />
    </clipPath>
    <clipPath
       id="clipPath7258">
      <path
         d="m 425.37997,641.54116 139.19429,0 0,133.69255 -139.19429,0 z"
         id="path7260"
         style="fill:#000000;fill-opacity:1;stroke:none" />
    </clipPath>
    <clipPath
       id="clipPath7262">
      <path
         d="m 425.37997,641.54116 139.19429,0 0,133.69255 -139.19429,0 z"
         id="path7264"
         style="fill:#000000;fill-opacity:1;stroke:none" />
    </clipPath>
    <clipPath
       id="clipPath7266">
      <path
         d="m 425.37997,641.54116 139.19429,0 0,133.69255 -139.19429,0 z"
         id="path7268"
         style="fill:#000000;fill-opacity:1;stroke:none" />
    </clipPath>
    <clipPath
       id="clipPath7270">
      <path
         d="m 425.37997,641.54116 139.19429,0 0,133.69255 -139.19429,0 z"
         id="path7272"
         style="fill:#000000;fill-opacity:1;stroke:none" />
    </clipPath>
    <clipPath
       id="clipPath7274">
      <path
         d="m 425.37997,641.54116 139.19429,0 0,133.69255 -139.19429,0 z"
         id="path7276"
         style="fill:#000000;fill-opacity:1;stroke:none" />
    </clipPath>
  </defs>
  <metadata
     id="metadata5205">
    <rdf:RDF>
      <cc:Work
         rdf:about="">
        <dc:format>image/svg+xml</dc:format>
        <dc:type
           rdf:resource="http://purl.org/dc/dcmitype/StillImage" />
        <dc:title></dc:title>
      </cc:Work>
    </rdf:RDF>
  </metadata>
  <g
     transform="translate(251.12576,-43.657947)"
     id="layer1">
    <g
       transform="matrix(0.324572,0,0,0.324572,-389.19219,-164.56835)"
       id="g3088">
      <path
         d="m 429.41707,671.39049 c -0.20643,0.12019 -0.27875,0.38132 -0.16716,0.57301 0.11159,0.19171 0.36348,0.23904 0.56993,0.11888 0.20644,-0.12016 0.28965,-0.36259 0.17806,-0.5543 -0.1116,-0.1917 -0.37436,-0.25775 -0.58083,-0.13759 z"
         clip-path="url(#clipPath7274)"
         id="path3315"
         style="color:#000000;fill:#280b0b;fill-opacity:1;fill-rule:evenodd;stroke:none;stroke-width:1px;marker:none;visibility:visible;display:inline;overflow:visible" />
      <path
         d="m 409.54458,589.32973 16.53936,84.44006"
         clip-path="url(#clipPath7270)"
         id="path3317"
         style="fill:none;stroke:#000000;stroke-width:0.69239295px;stroke-linecap:butt;stroke-linejoin:miter;stroke-opacity:1" />
      <path
         d="m 426.33036,590.917 3.41038,85.40254"
         clip-path="url(#clipPath7266)"
         id="path3319"
         style="fill:none;stroke:#000000;stroke-width:0.69239295px;stroke-linecap:butt;stroke-linejoin:miter;stroke-opacity:1" />
      <path
         d="m 417.51353,669.63339 42.02238,-69.86074"
         clip-path="url(#clipPath7262)"
         id="path3321"
         style="fill:none;stroke:#000000;stroke-width:0.69239295px;stroke-linecap:butt;stroke-linejoin:miter;stroke-opacity:1" />
      <path
         d="m 413.14602,665.58479 31.4225,-71.56617"
         clip-path="url(#clipPath7258)"
         id="path3323"
         style="fill:none;stroke:#000000;stroke-width:0.69239295px;stroke-linecap:butt;stroke-linejoin:miter;stroke-opacity:1" />
      <path
         d="m 428.28318,675.05241 45.16924,-66.57965"
         clip-path="url(#clipPath7254)"
         id="path3325"
         style="fill:none;stroke:#000000;stroke-width:0.69239295px;stroke-linecap:butt;stroke-linejoin:miter;stroke-opacity:1" />
      <path
         d="m 416.82348,667.14561 75.58689,-30.82247"
         clip-path="url(#clipPath7250)"
         id="path3327"
         style="fill:none;stroke:#000000;stroke-width:0.69239295px;stroke-linecap:butt;stroke-linejoin:miter;stroke-opacity:1" />
      <path
         d="M 429.39024,681.25895 484.062,621.55588"
         clip-path="url(#clipPath7246)"
         id="path3329"
         style="fill:none;stroke:#000000;stroke-width:0.69239295px;stroke-linecap:butt;stroke-linejoin:miter;stroke-opacity:1" />
      <path
         d="m 420.16211,675.20667 79.58842,-21.09275"
         clip-path="url(#clipPath7242)"
         id="path3331"
         style="fill:none;stroke:#000000;stroke-width:0.69239295px;stroke-linecap:butt;stroke-linejoin:miter;stroke-opacity:1" />
      <path
         d="m 353.64824,624.76819 69.06227,44.72641"
         clip-path="url(#clipPath7238)"
         id="path3333"
         style="fill:none;stroke:#000000;stroke-width:0.69239295px;stroke-linecap:butt;stroke-linejoin:miter;stroke-opacity:1" />
      <path
         d="m 365.31511,610.91364 56.44263,56.8297"
         clip-path="url(#clipPath7234)"
         id="path3335"
         style="fill:none;stroke:#000000;stroke-width:0.69239295px;stroke-linecap:butt;stroke-linejoin:miter;stroke-opacity:1" />
      <path
         d="m 343.70165,639.15334 67.88292,41.98107"
         clip-path="url(#clipPath7230)"
         id="path3337"
         style="fill:none;stroke:#000000;stroke-width:0.69239295px;stroke-linecap:butt;stroke-linejoin:miter;stroke-opacity:1" />
      <path
         d="m 334.48125,654.29567 78.30849,28.34793"
         clip-path="url(#clipPath7226)"
         id="path3339"
         style="fill:none;stroke:#000000;stroke-width:0.69239295px;stroke-linecap:butt;stroke-linejoin:miter;stroke-opacity:1" />
      <path
         d="m 380.44028,751.22236 46.1375,-65.57007"
         clip-path="url(#clipPath7222)"
         id="path3341"
         style="fill:none;stroke:#000000;stroke-width:0.69239295px;stroke-linecap:butt;stroke-linejoin:miter;stroke-opacity:1" />
      <path
         d="m 422.87966,685.08037 -28.47641,72.61705"
         clip-path="url(#clipPath7218)"
         id="path3343"
         style="fill:none;stroke:#000000;stroke-width:0.69239295px;stroke-linecap:butt;stroke-linejoin:miter;stroke-opacity:1" />
      <path
         d="m 409.11744,680.83554 17.63155,79.51614"
         clip-path="url(#clipPath7214)"
         id="path3345"
         style="fill:none;stroke:#000000;stroke-width:0.69239295px;stroke-linecap:butt;stroke-linejoin:miter;stroke-opacity:1" />
      <path
         d="m 411.67832,759.54224 1.97186,-82.56942"
         clip-path="url(#clipPath7210)"
         id="path3347"
         style="fill:none;stroke:#000000;stroke-width:0.69239295px;stroke-linecap:butt;stroke-linejoin:miter;stroke-opacity:1" />
      <path
         d="m 417.22437,683.47823 53.96516,57.0253"
         clip-path="url(#clipPath7206)"
         id="path3349"
         style="fill:none;stroke:#000000;stroke-width:0.69239295px;stroke-linecap:butt;stroke-linejoin:miter;stroke-opacity:1" />
      <path
         d="m 429.6478,680.76966 12.49136,76.9354"
         clip-path="url(#clipPath7202)"
         id="path3351"
         style="fill:none;stroke:#000000;stroke-width:0.69239295px;stroke-linecap:butt;stroke-linejoin:miter;stroke-opacity:1" />
      <path
         d="m 427.91719,680.73352 c 0.96826,1.00957 30.89476,72.12569 30.89476,72.12569"
         clip-path="url(#clipPath7198)"
         id="path3353"
         style="fill:none;stroke:#000000;stroke-width:0.69239295px;stroke-linecap:butt;stroke-linejoin:miter;stroke-opacity:1" />
      <path
         d="m 484.04608,728.89986 -64.65861,-42.4084"
         clip-path="url(#clipPath7194)"
         id="path3355"
         style="fill:none;stroke:#000000;stroke-width:0.69239295px;stroke-linecap:butt;stroke-linejoin:miter;stroke-opacity:1" />
      <path
         d="m 430.51341,674.85165 63.18556,41.88297"
         clip-path="url(#clipPath7190)"
         id="path3357"
         style="fill:none;stroke:#000000;stroke-width:0.69239295px;stroke-linecap:butt;stroke-linejoin:miter;stroke-opacity:1" />
      <path
         d="m 428.08243,672.82218 72.14839,27.22993"
         clip-path="url(#clipPath7186)"
         id="path3359"
         style="fill:none;stroke:#000000;stroke-width:0.69239295px;stroke-linecap:butt;stroke-linejoin:miter;stroke-opacity:1" />
      <path
         d="m 426.32538,685.89435 77.23364,-3.08633"
         clip-path="url(#clipPath7182)"
         id="path3361"
         style="fill:none;stroke:#000000;stroke-width:0.69239295px;stroke-linecap:butt;stroke-linejoin:miter;stroke-opacity:1" />
      <path
         d="M 427.14968,681.95417 506.8769,666.0584"
         clip-path="url(#clipPath7178)"
         id="path3363"
         style="fill:none;stroke:#000000;stroke-width:0.69239295px;stroke-linecap:butt;stroke-linejoin:miter;stroke-opacity:1" />
      <path
         d="m 345.50536,718.58623 73.62455,-31.60548"
         clip-path="url(#clipPath7174)"
         id="path3365"
         style="fill:none;stroke:#000000;stroke-width:0.69239295px;stroke-linecap:butt;stroke-linejoin:miter;stroke-opacity:1" />
      <path
         d="m 337.91416,703.09278 84.70795,-17.52311"
         clip-path="url(#clipPath7170)"
         id="path3367"
         style="fill:none;stroke:#000000;stroke-width:0.69239295px;stroke-linecap:butt;stroke-linejoin:miter;stroke-opacity:1" />
      <path
         d="m 334.76277,688.18673 74.32431,-17.73998"
         clip-path="url(#clipPath7166)"
         id="path3369"
         style="fill:none;stroke:#000000;stroke-width:0.69239295px;stroke-linecap:butt;stroke-linejoin:miter;stroke-opacity:1" />
      <path
         d="m 329.69033,670.51985 78.67055,-0.83027"
         clip-path="url(#clipPath7162)"
         id="path3371"
         style="fill:none;stroke:#000000;stroke-width:0.69239295px;stroke-linecap:butt;stroke-linejoin:miter;stroke-opacity:1" />
      <path
         d="m 354.90461,730.40738 56.47404,-51.25597"
         clip-path="url(#clipPath7158)"
         id="path3373"
         style="fill:none;stroke:#000000;stroke-width:0.69239295px;stroke-linecap:butt;stroke-linejoin:miter;stroke-opacity:1" />
      <path
         d="m 366.771,742.52741 41.40399,-63.93758"
         clip-path="url(#clipPath7154)"
         id="path3375"
         style="fill:none;stroke:#000000;stroke-width:0.69239295px;stroke-linecap:butt;stroke-linejoin:miter;stroke-opacity:1" />
      <path
         d="m 410.55938,682.84426 c 0.11327,0.49703 7.17191,5.96221 11.50616,5.68172 4.33425,-0.28047 7.36041,-3.06165 7.75964,-4.41366 0.39925,-1.35202 1.72059,-5.40549 1.27519,-7.76448 -0.4454,-2.35901 -4.6764,-7.02311 -6.27046,-7.67475 -1.59409,-0.65164 -4.01475,-3.17557 -4.88781,-2.8228 -0.87305,0.35277 -3.83205,-0.08 -4.47335,1.01959 -0.64132,1.09962 -7.6954,7.25939 -7.84483,8.49296 -0.14943,1.23356 -2.01139,1.56568 -0.19074,3.21139 1.82065,1.64572 3.12361,4.39364 3.1262,4.27003 z"
         clip-path="url(#clipPath7150)"
         id="path3379"
         style="color:#000000;fill:#2b1100;fill-opacity:1;fill-rule:evenodd;stroke:#000000;stroke-width:0.34619638;stroke-linecap:butt;stroke-linejoin:miter;stroke-miterlimit:4;stroke-opacity:1;stroke-dasharray:none;stroke-dashoffset:0;marker:none;visibility:visible;display:inline;overflow:visible" />
      <g
         transform="translate(7.842155,2.785414)"
         clip-path="url(#clipPath7146)"
         id="g3387"
         style="fill:#000000">
        <path
           d="m 430.77597,570.59999 -0.11718,0.74944 c -0.36123,-0.0394 -0.50062,-0.047 -0.79672,-0.0783 l 0.066,-0.45009 -1.71418,-0.25547 -0.0702,0.49315 c -0.0299,-0.003 -0.36609,-0.036 -0.36609,-0.036 l 0.3449,0.25131 -0.24492,1.60655 0.0216,0.002 -0.23995,1.99838 10.1814,-0.0645 c 0,0 0.002,-0.61642 -0.13776,-1.25282 l 0.25759,-1.73574 -1.5225,-0.2149 -0.0723,0.51469 c -0.23149,-0.0476 -0.51736,-0.11807 -0.8529,-0.17081 l 0.11507,-0.7279 -1.84342,-0.26818 -0.11718,0.74944 c -0.51077,-0.0656 -0.99329,-0.1307 -1.52462,-0.19335 l 0.11289,-0.70638 -1.47945,-0.21066 z"
           id="path3389"
           style="color:#000000;fill:#000000;fill-opacity:1;fill-rule:evenodd;stroke:none;stroke-width:1px;marker:none;visibility:visible;display:inline;overflow:visible" />
        <path
           d="m 441.90701,573.24996 -0.19853,0.7321 c -0.35481,-0.0788 -0.49257,-0.10154 -0.78335,-0.16513 l 0.11487,-0.44015 -1.67594,-0.44172 -0.12379,0.4825 c -0.0294,-0.006 -0.35993,-0.0759 -0.35993,-0.0759 l 0.31527,0.28759 -0.41937,1.57005 0.0212,0.004 -0.45737,1.96007 10.12714,1.05121 c 0,0 0.0695,-0.61249 3.5e-4,-1.26036 l 0.4462,-1.69708 -1.48982,-0.38038 -0.12833,0.50366 c -0.2248,-0.0727 -0.5013,-0.17403 -0.82901,-0.26321 l 0.19407,-0.71092 -1.80294,-0.46849 -0.19854,0.73209 c -0.50047,-0.12119 -0.97296,-0.23873 -1.49428,-0.35921 l 0.18962,-0.68975 -1.44749,-0.37146 z"
           id="path3391"
           style="color:#000000;fill:#000000;fill-opacity:1;fill-rule:evenodd;stroke:none;stroke-width:1px;marker:none;visibility:visible;display:inline;overflow:visible" />
        <path
           d="m 452.61508,577.0757 -0.27709,0.70612 c -0.34404,-0.11692 -0.4785,-0.15455 -0.76074,-0.24943 l 0.16213,-0.42502 -1.61782,-0.62154 -0.1756,0.46615 c -0.0285,-0.009 -0.34955,-0.11461 -0.34955,-0.11461 l 0.2821,0.32021 -0.58783,1.51505 0.0206,0.007 -0.66807,1.89862 9.95258,2.14746 c 0,0 0.13576,-0.60129 0.13752,-1.25284 l 0.62829,-1.63842 -1.4396,-0.54031 -0.18233,0.48671 c -0.21558,-0.0967 -0.4794,-0.22758 -0.79545,-0.35189 l 0.27036,-0.68557 -1.74122,-0.66199 -0.27709,0.70613 c -0.48431,-0.17496 -0.9412,-0.34324 -1.44632,-0.51976 l 0.26362,-0.665 -1.39846,-0.52682 z"
           id="path3393"
           style="color:#000000;fill:#000000;fill-opacity:1;fill-rule:evenodd;stroke:none;stroke-width:1px;marker:none;visibility:visible;display:inline;overflow:visible" />
        <path
           d="m 463.98187,582.68597 -0.36069,0.66731 c -0.32733,-0.1578 -0.45627,-0.21147 -0.72485,-0.33988 l 0.21249,-0.40221 -1.5305,-0.81323 -0.23091,0.44141 c -0.0272,-0.0128 -0.33303,-0.15616 -0.33303,-0.15616 l 0.2412,0.35206 -0.76727,1.43256 0.0195,0.009 -0.89344,1.80356 9.61853,3.33898 c 0,0 0.2077,-0.58038 0.28852,-1.22689 l 0.82243,-1.55011 -1.36339,-0.71096 -0.24003,0.461 c -0.20231,-0.12215 -0.44831,-0.28406 -0.74688,-0.4458 l 0.35149,-0.64771 -1.64806,-0.86834 -0.36069,0.66731 c -0.45957,-0.23242 -0.89261,-0.45489 -1.37259,-0.69137 l 0.34235,-0.62812 -1.32422,-0.69259 z"
           id="path3395"
           style="color:#000000;fill:#000000;fill-opacity:1;fill-rule:evenodd;stroke:none;stroke-width:1px;marker:none;visibility:visible;display:inline;overflow:visible" />
        <path
           d="m 474.67116,589.69877 -0.43966,0.61816 c -0.3056,-0.19666 -0.42694,-0.2657 -0.67783,-0.426 l 0.26016,-0.3732 -1.41952,-0.99436 -0.28315,0.40984 c -0.0254,-0.0161 -0.31144,-0.19573 -0.31144,-0.19573 l 0.19632,0.37892 -0.93684,1.32792 0.0183,0.0115 -1.10737,1.6807 9.13776,4.4907 c 0,0 0.27709,-0.5506 0.43641,-1.18238 l 1.00589,-1.43783 -1.26617,-0.87243 -0.29462,0.42816 c -0.1858,-0.14598 -0.41015,-0.33676 -0.68672,-0.53382 l 0.42805,-0.59985 -1.52943,-1.06345 -0.43959,0.61816 c -0.42761,-0.28689 -0.83028,-0.56067 -1.27763,-0.8541 l 0.41652,-0.58152 -1.22946,-0.8494 z"
           id="path3397"
           style="color:#000000;fill:#000000;fill-opacity:1;fill-rule:evenodd;stroke:none;stroke-width:1px;marker:none;visibility:visible;display:inline;overflow:visible" />
        <path
           d="m 484.18185,597.73698 -0.51015,0.56136 c -0.27993,-0.23168 -0.39226,-0.31469 -0.62218,-0.50375 l 0.30273,-0.33954 -1.29091,-1.15646 -0.32997,0.37317 c -0.0233,-0.019 -0.2859,-0.23146 -0.2859,-0.23146 l 0.14977,0.39963 -1.0884,1.2068 0.0168,0.0136 -1.2998,1.53674 8.5374,5.54777 c 0,0 0.34073,-0.51366 0.57421,-1.12195 l 1.17008,-1.3077 -1.15317,-1.0171 -0.34355,0.38998 c -0.16708,-0.16708 -0.36707,-0.38324 -0.61819,-0.61186 l 0.4965,-0.54454 -1.39178,-1.23816 -0.51015,0.56136 c -0.39037,-0.33582 -0.75752,-0.65563 -1.16675,-1.00029 l 0.48292,-0.52772 -1.11953,-0.98989 z"
           id="path3399"
           style="color:#000000;fill:#000000;fill-opacity:1;fill-rule:evenodd;stroke:none;stroke-width:1px;marker:none;visibility:visible;display:inline;overflow:visible" />
        <path
           d="m 493.04579,607.31345 -0.57625,0.49326 c -0.24884,-0.26483 -0.34988,-0.36121 -0.55444,-0.57751 l 0.34275,-0.29907 -1.13635,-1.30861 -0.37399,0.32905 c -0.0207,-0.0217 -0.25472,-0.26534 -0.25472,-0.26534 l 0.0987,0.41519 -1.23059,1.06145 0.015,0.0156 -1.48155,1.3624 7.77785,6.57042 c 0,0 0.40222,-0.46707 0.7098,-1.04145 l 1.32423,-1.15136 -1.01709,-1.15314 -0.38961,0.34403 c -0.14493,-0.18664 -0.31632,-0.42608 -0.53697,-0.68427 l 0.5607,-0.47828 -1.2263,-1.40225 -0.57625,0.49326 c -0.34542,-0.38194 -0.66978,-0.7451 -1.03277,-1.13816 l 0.54508,-0.46329 -0.98719,-1.12193 z"
           id="path3401"
           style="color:#000000;fill:#000000;fill-opacity:1;fill-rule:evenodd;stroke:none;stroke-width:1px;marker:none;visibility:visible;display:inline;overflow:visible" />
        <path
           d="m 418.16029,569.10572 -0.0251,0.75812 c -0.36341,0.005 -0.50267,0.0143 -0.80036,0.0191 l 0.0108,-0.45477 -1.73257,-0.0452 -0.01,0.49803 c -0.0301,6.4e-4 -0.36771,0.009 -0.36771,0.009 l 0.37289,0.20753 -0.0478,1.62439 0.0216,-5.2e-4 0.005,2.01274 10.09803,-1.30187 c 0,0 -0.073,-0.61207 -0.28907,-1.22677 l 0.0447,-1.75418 -1.53735,-0.0282 -0.009,0.51966 c -0.23548,-0.0191 -0.52783,-0.0543 -0.86728,-0.0658 l 0.0257,-0.7365 -1.86234,-0.0421 -0.0252,0.75812 c -0.51499,-0.003 -1.00179,-0.009 -1.53683,-0.007 l 0.0262,-0.71486 -1.49411,-0.0292 z"
           id="path3403"
           style="color:#000000;fill:#000000;fill-opacity:1;fill-rule:evenodd;stroke:none;stroke-width:1px;marker:none;visibility:visible;display:inline;overflow:visible" />
        <path
           d="m 406.0585,569.11896 0.0628,0.75593 c -0.36041,0.0468 -0.49765,0.0724 -0.79274,0.11171 l -0.042,-0.45295 -1.72617,0.15583 0.048,0.4958 c -0.0297,0.004 -0.36424,0.0513 -0.36424,0.0513 l 0.39446,0.16293 0.14071,1.619 0.0215,-0.003 0.23791,1.99862 9.87926,-2.46284 c 0,0 -0.14344,-0.5995 -0.42921,-1.18503 l -0.15887,-1.74755 -1.53027,0.15008 0.051,0.51724 c -0.23613,0.008 -0.53064,0.007 -0.86912,0.0351 l -0.0598,-0.73451 -1.85466,0.17394 0.0628,0.75594 c -0.51186,0.0566 -0.9961,0.10713 -1.52725,0.17151 l -0.0568,-0.71308 -1.48741,0.14405 z"
           id="path3405"
           style="color:#000000;fill:#000000;fill-opacity:1;fill-rule:evenodd;stroke:none;stroke-width:1px;marker:none;visibility:visible;display:inline;overflow:visible" />
        <path
           d="m 393.60662,570.61158 0.15312,0.74293 c -0.35216,0.0898 -0.48538,0.1316 -0.77365,0.20606 l -0.096,-0.44465 -1.69494,0.36189 0.10722,0.48646 c -0.0291,0.008 -0.35545,0.0947 -0.35545,0.0947 l 0.41113,0.11442 0.33404,1.59039 0.0209,-0.006 0.47614,1.95562 9.51216,-3.63082 c 0,0 -0.21432,-0.57796 -0.56828,-1.12495 l -0.3675,-1.71585 -1.50118,0.33268 0.11274,0.50737 c -0.23346,0.0366 -0.52587,0.0709 -0.85861,0.13913 l -0.14753,-0.72202 -1.82037,0.3953 0.15312,0.74293 c -0.50137,0.11765 -0.97608,0.22591 -1.49566,0.35358 l -0.14194,-0.70111 -1.4594,0.32154 z"
           id="path3407"
           style="color:#000000;fill:#000000;fill-opacity:1;fill-rule:evenodd;stroke:none;stroke-width:1px;marker:none;visibility:visible;display:inline;overflow:visible" />
        <path
           d="m 499.89912,616.74761 -0.62775,0.42585 c -0.21769,-0.29095 -0.30735,-0.398 -0.48646,-0.63579 l 0.37398,-0.25894 -0.98318,-1.42728 -0.40839,0.28524 c -0.0182,-0.0239 -0.22355,-0.29211 -0.22355,-0.29211 l 0.0518,0.42361 -1.34136,0.91744 0.0131,0.0172 -1.62439,1.18849 6.99574,7.39759 c 0,0 0.45191,-0.41925 0.82171,-0.95569 l 1.44448,-0.99635 -0.88204,-1.25948 -0.42557,0.2984 c -0.12321,-0.20165 -0.26681,-0.45873 -0.45727,-0.73994 l 0.61058,-0.4127 -1.06212,-1.53038 -0.62768,0.42585 c -0.30063,-0.41812 -0.58237,-0.8152 -0.89921,-1.24633 l 0.59333,-0.39955 -0.85574,-1.22512 z"
           id="path3409"
           style="color:#000000;fill:#000000;fill-opacity:1;fill-rule:evenodd;stroke:none;stroke-width:1px;marker:none;visibility:visible;display:inline;overflow:visible" />
        <path
           d="m 505.17312,625.92589 -0.66765,0.36003 c -0.18713,-0.31153 -0.26547,-0.42712 -0.41957,-0.68184 l 0.3983,-0.2197 -0.83346,-1.51959 -0.43513,0.24238 c -0.0157,-0.0256 -0.19277,-0.31327 -0.19277,-0.31327 l 0.008,0.42666 -1.42742,0.77676 0.0113,0.0184 -1.73648,1.01772 6.20988,8.06862 c 0,0 0.49205,-0.3713 0.91427,-0.86749 l 1.53806,-0.84479 -0.74983,-1.3424 -0.45365,0.25372 c -0.10207,-0.21309 -0.21886,-0.48341 -0.37987,-0.78247 l 0.64927,-0.34869 -0.90151,-1.63016 -0.66765,0.36003 c -0.25668,-0.44644 -0.49673,-0.87003 -0.76828,-1.33106 l 0.63082,-0.33735 -0.72712,-1.30554 z"
           id="path3411"
           style="color:#000000;fill:#000000;fill-opacity:1;fill-rule:evenodd;stroke:none;stroke-width:1px;marker:none;visibility:visible;display:inline;overflow:visible" />
        <path
           d="m 510.3052,637.77104 -0.70701,0.27479 c -0.14722,-0.33226 -0.21069,-0.45664 -0.33216,-0.72844 l 0.42244,-0.16881 -0.6393,-1.61091 -0.46181,0.18676 c -0.0124,-0.0274 -0.15264,-0.33469 -0.15264,-0.33469 l -0.0443,0.42445 -1.51246,0.59446 0.009,0.0197 -1.84895,0.79541 5.16554,8.77397 c 0,0 0.53415,-0.30767 1.01448,-0.7479 l 1.63056,-0.64831 -0.57823,-1.42475 -0.48145,0.19574 c -0.075,-0.22408 -0.1575,-0.50675 -0.28032,-0.82341 l 0.68736,-0.26581 -0.69321,-1.72904 -0.70701,0.27479 c -0.19958,-0.47473 -0.38548,-0.92473 -0.59794,-1.41577 l 0.66764,-0.25684 -0.56028,-1.38537 z"
           id="path3413"
           style="color:#000000;fill:#000000;fill-opacity:1;fill-rule:evenodd;stroke:none;stroke-width:1px;marker:none;visibility:visible;display:inline;overflow:visible" />
        <path
           d="m 515.14018,687.14186 -0.75388,-0.0841 c 0.0236,-0.36265 0.025,-0.50226 0.0433,-0.7994 l 0.45258,0.0462 0.17999,-1.72377 -0.49575,-0.0485 c 0.002,-0.03 0.0199,-0.3673 0.0199,-0.3673 l -0.23597,0.35561 -1.61574,-0.17415 -10e-4,0.0216 -2.007,-0.15199 0.51125,10.16876 c 0,0 0.61592,-0.0251 1.24555,-0.19259 l 1.74544,0.18116 0.14783,-1.53049 -0.5174,-0.0497 c 0.0374,-0.23332 0.0953,-0.52205 0.13326,-0.85955 l 0.73223,0.083 0.18705,-1.85341 -0.75388,-0.0841 c 0.0431,-0.51316 0.087,-0.99807 0.12625,-1.53166 l 0.71064,0.0818 0.14554,-1.48729 z"
           id="path3415"
           style="color:#000000;fill:#000000;fill-opacity:1;fill-rule:evenodd;stroke:none;stroke-width:1px;marker:none;visibility:visible;display:inline;overflow:visible" />
        <path
           d="m 512.98126,698.37848 -0.74004,-0.16622 c 0.0631,-0.35789 0.0798,-0.49651 0.13056,-0.78985 l 0.44476,0.0955 0.36773,-1.69368 -0.48742,-0.10252 c 0.005,-0.0296 0.0599,-0.36291 0.0599,-0.36291 l -0.27348,0.32761 -1.58692,-0.35009 -0.003,0.0213 -1.97826,-0.37093 -0.60578,10.16357 c 0,0 0.61499,0.0425 1.25915,-0.055 l 1.71509,0.37127 0.31462,-1.50509 -0.50882,-0.10604 c 0.0627,-0.22783 0.15183,-0.50848 0.22655,-0.83979 l 0.71879,0.16269 0.38889,-1.82176 -0.74011,-0.16623 c 0.0991,-0.50533 0.1958,-0.98253 0.29329,-1.50861 l 0.69739,0.15916 0.30756,-1.46239 z"
           id="path3417"
           style="color:#000000;fill:#000000;fill-opacity:1;fill-rule:evenodd;stroke:none;stroke-width:1px;marker:none;visibility:visible;display:inline;overflow:visible" />
        <path
           d="m 509.62922,709.24414 -0.71761,-0.2458 c 0.10168,-0.34889 0.1334,-0.48488 0.21577,-0.77096 l 0.43178,0.14333 0.54993,-1.64359 -0.47344,-0.15498 c 0.008,-0.0289 0.0992,-0.35422 0.0992,-0.35422 l -0.30751,0.2959 -1.53938,-0.52078 -0.006,0.0208 -1.92616,-0.58409 -1.70858,10.03723 c 0,0 0.60667,0.10922 1.25767,0.0824 l 1.66442,0.55577 0.47667,-1.46189 -0.4943,-0.16081 c 0.0872,-0.21964 0.20634,-0.48892 0.31665,-0.81013 l 0.69681,0.23997 0.58488,-1.7686 -0.7176,-0.2458 c 0.15355,-0.49156 0.30161,-0.95538 0.4558,-1.46773 l 0.67595,0.23415 0.46493,-1.42022 z"
           id="path3419"
           style="color:#000000;fill:#000000;fill-opacity:1;fill-rule:evenodd;stroke:none;stroke-width:1px;marker:none;visibility:visible;display:inline;overflow:visible" />
        <path
           d="m 504.52323,720.84621 -0.68251,-0.33105 c 0.14327,-0.33396 0.19123,-0.4651 0.30776,-0.73907 l 0.41111,0.19463 0.74531,-1.56473 -0.45114,-0.21127 c 0.0117,-0.0277 0.14138,-0.33957 0.14138,-0.33957 l -0.3411,0.2564 -1.46486,-0.70367 -0.008,0.02 -1.84104,-0.81345 -2.91361,9.75582 c 0,0 0.58888,0.18201 1.23836,0.23438 l 1.58473,0.75358 0.65038,-1.39327 -0.47105,-0.21959 c 0.11313,-0.20744 0.26412,-0.46028 0.41261,-0.76573 l 0.66247,0.32273 0.79518,-1.68458 -0.68252,-0.33104 c 0.21203,-0.4693 0.41532,-0.91173 0.63047,-1.40159 l 0.64256,0.31441 0.63382,-1.35332 z"
           id="path3421"
           style="color:#000000;fill:#000000;fill-opacity:1;fill-rule:evenodd;stroke:none;stroke-width:1px;marker:none;visibility:visible;display:inline;overflow:visible" />
        <path
           d="m 497.98628,731.83299 -0.63684,-0.41207 c 0.18309,-0.31393 0.24669,-0.43822 0.39585,-0.69587 l 0.38426,0.24347 0.93112,-1.46179 -0.42191,-0.26487 c 0.0149,-0.0261 0.18189,-0.31972 0.18189,-0.31972 l -0.36997,0.21274 -1.36772,-0.87762 -0.0107,0.0188 -1.72766,-1.03258 -4.08535,9.32606 c 0,0 0.56226,0.2527 1.20039,0.38412 l 1.48059,0.9418 0.81603,-1.30322 -0.44066,-0.27557 c 0.13767,-0.19203 0.31843,-0.42451 0.50313,-0.70949 l 0.61809,0.40135 0.99532,-1.57463 -0.63685,-0.41206 c 0.26779,-0.43983 0.52368,-0.85407 0.79714,-1.31392 l 0.59927,0.39066 0.7946,-1.2656 z"
           id="path3423"
           style="color:#000000;fill:#000000;fill-opacity:1;fill-rule:evenodd;stroke:none;stroke-width:1px;marker:none;visibility:visible;display:inline;overflow:visible" />
        <path
           d="m 490.37323,741.68734 -0.58318,-0.48503 c 0.21915,-0.28987 0.2972,-0.40569 0.47593,-0.64373 l 0.35252,0.28753 1.09867,-1.3404 -0.38723,-0.31326 c 0.0179,-0.0241 0.21864,-0.29576 0.21864,-0.29576 l -0.39263,0.16713 -1.25344,-1.03437 -0.0129,0.0174 -1.59228,-1.23113 -5.16774,8.77267 c 0,0 0.52814,0.31791 1.14608,0.52446 l 1.35779,1.11156 0.96553,-1.19669 -0.4047,-0.32612 c 0.1596,-0.17427 0.36675,-0.38354 0.58412,-0.64448 l 0.56585,0.47217 1.17585,-1.44479 -0.58317,-0.48503 c 0.31837,-0.40476 0.62176,-0.78556 0.94808,-1.20954 l 0.54846,0.4593 0.93974,-1.16188 z"
           id="path3425"
           style="color:#000000;fill:#000000;fill-opacity:1;fill-rule:evenodd;stroke:none;stroke-width:1px;marker:none;visibility:visible;display:inline;overflow:visible" />
        <path
           d="m 481.19505,750.96305 -0.51808,-0.55406 c 0.25364,-0.26024 0.34552,-0.3654 0.55263,-0.57926 l 0.31384,0.32931 1.25743,-1.19271 -0.34514,-0.35918 c 0.0208,-0.0217 0.2539,-0.26615 0.2539,-0.26615 l -0.41042,0.11679 -1.11446,-1.18278 -0.0149,0.0157 -1.42613,-1.42032 -6.22267,8.0587 c 0,0 0.48423,0.38136 1.07157,0.66346 l 1.20837,1.27241 1.10735,-1.06675 -0.36075,-0.37411 c 0.18007,-0.15297 0.41178,-0.33473 0.66005,-0.56648 l 0.5024,0.53912 1.34707,-1.28665 -0.51809,-0.55406 c 0.36644,-0.36184 0.71503,-0.70178 1.09174,-1.08168 l 0.48679,0.52419 1.07754,-1.03544 z"
           id="path3427"
           style="color:#000000;fill:#000000;fill-opacity:1;fill-rule:evenodd;stroke:none;stroke-width:1px;marker:none;visibility:visible;display:inline;overflow:visible" />
        <path
           d="m 516.07932,674.47277 -0.75851,0.008 c -0.0207,-0.36281 -0.0363,-0.50157 -0.0542,-0.79873 l 0.45478,-0.009 -0.0309,-1.73288 -0.49791,0.0121 c -0.002,-0.03 -0.025,-0.36699 -0.025,-0.36699 l -0.19094,0.38165 -1.62492,0.0236 10e-4,0.0216 -2.01053,0.0931 1.74381,10.03117 c 0,0 0.60827,-0.0998 1.21287,-0.3426 l 1.75448,-0.0324 -0.0394,-1.53713 -0.51955,0.0136 c 0.009,-0.23614 0.0311,-0.52976 0.0277,-0.86937 l 0.73694,-0.007 -0.0397,-1.86239 -0.7585,0.008 c -0.0196,-0.5146 -0.035,-1.00124 -0.0609,-1.53566 l 0.7153,-0.005 -0.0364,-1.49395 z"
           id="path3429"
           style="color:#000000;fill:#000000;fill-opacity:1;fill-rule:evenodd;stroke:none;stroke-width:1px;marker:none;visibility:visible;display:inline;overflow:visible" />
        <path
           d="m 515.53498,662.38316 -0.75245,0.0959 c -0.0627,-0.35797 -0.0942,-0.49399 -0.14644,-0.78708 l 0.45068,-0.0618 -0.23145,-1.71762 -0.49316,0.0697 c -0.005,-0.0296 -0.0673,-0.36164 -0.0673,-0.36164 l -0.14544,0.4012 -1.61126,0.21166 0.004,0.0213 -1.98622,0.32542 2.89407,9.76163 c 0,0 0.59262,-0.16957 1.16507,-0.48079 l 1.73884,-0.2354 -0.21711,-1.52222 -0.5145,0.0737 c -0.0186,-0.23555 -0.0305,-0.52979 -0.0732,-0.86673 l 0.73124,-0.092 -0.25524,-1.84526 -0.75244,0.0959 c -0.079,-0.50887 -0.15072,-0.99044 -0.23838,-1.51827 l 0.70996,-0.088 -0.2092,-1.47968 z"
           id="path3431"
           style="color:#000000;fill:#000000;fill-opacity:1;fill-rule:evenodd;stroke:none;stroke-width:1px;marker:none;visibility:visible;display:inline;overflow:visible" />
        <path
           d="m 513.4973,650.0088 -0.73555,0.18556 c -0.10514,-0.34787 -0.15274,-0.47912 -0.2398,-0.76382 l 0.44003,-0.11546 -0.43597,-1.67743 -0.48123,0.12842 c -0.009,-0.0287 -0.11019,-0.35093 -0.11019,-0.35093 l -0.0963,0.41575 -1.57421,0.40352 0.007,0.0206 -1.93284,0.56147 4.04481,9.3437 c 0,0 0.56797,-0.23948 1.09893,-0.61716 l 1.69808,-0.44241 -0.39829,-1.48515 -0.50193,0.1349 c -0.0468,-0.2316 -0.0939,-0.52229 -0.17668,-0.85167 l 0.71484,-0.17907 -0.47479,-1.8013 -0.73548,0.18556 c -0.13958,-0.4957 -0.26856,-0.96519 -0.41892,-1.47867 l 0.69421,-0.1726 -0.38523,-1.44386 z"
           id="path3433"
           style="color:#000000;fill:#000000;fill-opacity:1;fill-rule:evenodd;stroke:none;stroke-width:1px;marker:none;visibility:visible;display:inline;overflow:visible" />
        <path
           d="m 472.07074,758.22381 -0.45296,-0.60842 c 0.28107,-0.2303 0.38408,-0.32455 0.6138,-0.51395 l 0.27513,0.36228 1.38274,-1.04489 -0.3029,-0.39545 c 0.0231,-0.0192 0.28202,-0.23615 0.28202,-0.23615 l -0.42094,0.0702 -0.97545,-1.2998 -0.0166,0.0139 -1.25866,-1.57064 -7.08338,7.3137 c 0,0 0.43868,0.43304 0.99083,0.77894 l 1.05876,1.39933 1.21953,-0.93645 -0.31675,-0.41206 c 0.19604,-0.13191 0.44658,-0.28667 0.71917,-0.48926 l 0.43911,0.59183 1.48227,-1.12822 -0.45303,-0.60844 c 0.40452,-0.31867 0.7889,-0.61756 1.20568,-0.95304 l 0.42519,0.57525 1.1864,-0.90869 z"
           id="path3435"
           style="color:#000000;fill:#000000;fill-opacity:1;fill-rule:evenodd;stroke:none;stroke-width:1px;marker:none;visibility:visible;display:inline;overflow:visible" />
        <path
           d="m 463.1328,763.89556 -0.38897,-0.65122 c 0.30302,-0.20061 0.41501,-0.28393 0.66272,-0.44908 l 0.23698,0.3883 1.48158,-0.89934 -0.2613,-0.42413 c 0.0249,-0.0168 0.30452,-0.20633 0.30452,-0.20633 l -0.42586,0.0272 -0.83868,-1.39198 -0.0179,0.0121 -1.09293,-1.69014 -7.78833,6.55801 c 0,0 0.39251,0.47527 0.90682,0.87536 l 0.91144,1.49946 1.30819,-0.80802 -0.27339,-0.44204 c 0.20842,-0.11136 0.47338,-0.23991 0.76511,-0.41384 l 0.37681,0.6333 1.58906,-0.97217 -0.38905,-0.65121 c 0.4348,-0.27603 0.84741,-0.53443 1.2961,-0.82593 l 0.36473,0.61539 1.27236,-0.78374 z"
           id="path3437"
           style="color:#000000;fill:#000000;fill-opacity:1;fill-rule:evenodd;stroke:none;stroke-width:1px;marker:none;visibility:visible;display:inline;overflow:visible" />
        <path
           d="m 451.52431,769.54257 -0.30559,-0.69428 c 0.32547,-0.16165 0.44693,-0.23048 0.71316,-0.36377 l 0.18719,0.4146 1.58128,-0.70942 -0.20682,-0.45315 c 0.0268,-0.0136 0.32768,-0.16714 0.32768,-0.16714 l -0.42601,-0.0256 -0.66028,-1.48492 -0.0192,0.01 -0.87576,-1.81221 -8.53882,5.54563 c 0,0 0.33077,0.52013 0.79167,0.98068 l 0.71929,1.60057 1.39798,-0.64022 -0.21667,-0.47242 c 0.22055,-0.0848 0.49934,-0.17961 0.8103,-0.31617 l 0.29575,0.67501 1.69692,-0.76842 -0.30559,-0.69428 c 0.46556,-0.22021 0.90698,-0.42565 1.3882,-0.65949 l 0.2859,0.65573 1.35947,-0.62055 z"
           id="path3439"
           style="color:#000000;fill:#000000;fill-opacity:1;fill-rule:evenodd;stroke:none;stroke-width:1px;marker:none;visibility:visible;display:inline;overflow:visible" />
        <path
           d="m 401.72554,776.47302 0.056,-0.75647 c 0.36324,0.01 0.5028,0.006 0.80044,0.0135 l -0.0293,0.45395 1.72929,0.11567 0.0301,-0.49723 c 0.03,6e-4 0.36775,0.006 0.36775,0.006 l -0.36413,-0.22253 0.11385,-1.62111 -0.0217,-3.7e-4 0.0772,-2.01126 -10.14267,0.88964 c 0,0 0.048,0.61454 0.23884,1.23753 l -0.11607,1.75091 1.53499,0.0908 0.0304,-0.51886 c 0.23452,0.0287 0.52524,0.0757 0.86391,0.10111 l -0.0557,0.73484 1.8591,0.11785 0.056,-0.75647 c 0.51441,0.024 1.00066,0.0498 1.53532,0.0691 l -0.0553,0.71319 1.49165,0.09 z"
           id="path3441"
           style="color:#000000;fill:#000000;fill-opacity:1;fill-rule:evenodd;stroke:none;stroke-width:1px;marker:none;visibility:visible;display:inline;overflow:visible" />
        <path
           d="m 390.41633,774.73412 0.1385,-0.74579 c 0.36006,0.0498 0.49916,0.0613 0.79418,0.10108 l -0.0788,0.44802 1.70623,0.30441 0.0843,-0.49094 c 0.0298,0.004 0.3649,0.0464 0.3649,0.0464 l -0.33756,-0.26108 0.29074,-1.59888 -0.0215,-0.003 0.29699,-1.9907 -10.17906,-0.22679 c 0,0 -0.0196,0.61611 0.10182,1.25624 l -0.30715,1.72767 1.51578,0.25836 0.087,-0.51241 c 0.23004,0.0542 0.51379,0.13282 0.84768,0.19514 l -0.13583,0.72431 1.83498,0.3208 0.13857,-0.74578 c 0.50866,0.0802 0.98909,0.15907 1.51844,0.23689 l -0.13303,0.70286 1.47281,0.25289 z"
           id="path3443"
           style="color:#000000;fill:#000000;fill-opacity:1;fill-rule:evenodd;stroke:none;stroke-width:1px;marker:none;visibility:visible;display:inline;overflow:visible" />
        <path
           d="m 379.43336,771.78903 0.21891,-0.72627 c 0.35246,0.0887 0.48951,0.11525 0.77847,0.18694 l -0.12714,0.43678 1.66292,0.48834 0.13722,-0.47885 c 0.0292,0.007 0.35771,0.0859 0.35771,0.0859 l -0.30719,-0.29628 0.46309,-1.55773 -0.021,-0.005 0.51193,-1.94653 -10.09388,-1.33357 c 0,0 -0.0866,0.61031 -0.0355,1.25986 l -0.49335,1.68396 1.47856,0.42183 0.1423,-0.49988 c 0.22274,0.0789 0.4963,0.18796 0.82141,0.28624 l -0.21391,0.70523 1.78916,0.51866 0.21892,-0.72627 c 0.49691,0.13512 0.96594,0.26581 1.48371,0.4008 l -0.20882,0.68418 1.43653,0.41173 z"
           id="path3445"
           style="color:#000000;fill:#000000;fill-opacity:1;fill-rule:evenodd;stroke:none;stroke-width:1px;marker:none;visibility:visible;display:inline;overflow:visible" />
        <path
           d="m 367.6492,767.11867 0.30537,-0.69434 c 0.33911,0.13074 0.47194,0.17378 0.75007,0.27999 l -0.17924,0.41812 1.59139,0.68648 0.19435,-0.45867 c 0.0281,0.0106 0.34463,0.12864 0.34463,0.12864 l -0.26899,-0.33135 0.64866,-1.49004 -0.0203,-0.008 0.74434,-1.87005 -9.85756,-2.54826 c 0,0 -0.15995,0.5953 -0.18809,1.24625 l -0.69407,1.61167 1.41657,0.5981 0.20184,-0.47894 c 0.21152,0.10535 0.46979,0.24678 0.78059,0.38378 l -0.29782,0.67407 1.71303,0.73188 0.30537,-0.69434 c 0.47684,0.1944 0.92656,0.38102 1.42406,0.57781 l -0.29026,0.65381 1.37603,0.58296 z"
           id="path3447"
           style="color:#000000;fill:#000000;fill-opacity:1;fill-rule:evenodd;stroke:none;stroke-width:1px;marker:none;visibility:visible;display:inline;overflow:visible" />
        <path
           d="m 356.42657,760.99548 0.38807,-0.65176 c 0.32054,0.17125 0.44708,0.23021 0.7101,0.36965 l -0.22899,0.39306 1.49547,0.87602 0.24897,-0.43144 c 0.0267,0.0139 0.32632,0.16984 0.32632,0.16984 l -0.22639,-0.36177 0.82607,-1.39949 -0.0192,-0.01 0.9675,-1.76494 -9.47175,-3.73516 c 0,0 -0.23154,0.57126 -0.33915,1.21387 l -0.88602,1.51464 1.33271,0.76692 0.259,-0.45064 c 0.19701,0.13044 0.43608,0.30241 0.72775,0.47639 l -0.37804,0.63258 1.61056,0.93596 0.38807,-0.65176 c 0.44948,0.25129 0.873,0.49153 1.34267,0.74772 l -0.36802,0.61338 1.29428,0.74692 z"
           id="path3449"
           style="color:#000000;fill:#000000;fill-opacity:1;fill-rule:evenodd;stroke:none;stroke-width:1px;marker:none;visibility:visible;display:inline;overflow:visible" />
        <path
           d="m 346.29553,753.75473 0.46298,-0.60087 c 0.29781,0.20822 0.4165,0.28185 0.66102,0.45165 l -0.27421,0.36297 1.38037,1.048 0.29864,-0.39869 c 0.0248,0.017 0.30371,0.20752 0.30371,0.20752 l -0.18162,-0.38617 0.98697,-1.29106 -0.0179,-0.0122 1.171,-1.63706 -8.9591,-4.83742 c 0,0 -0.29798,0.5396 -0.48141,1.16481 l -1.06019,1.39824 1.23179,0.92028 0.31086,-0.41655 c 0.18005,0.15299 0.39688,0.35222 0.66575,0.55974 l -0.45076,0.583 1.48757,1.12125 0.46298,-0.60087 c 0.41633,0.30307 0.80816,0.59207 1.24401,0.90242 l -0.43855,0.56514 1.19608,0.89587 z"
           id="path3452"
           style="color:#000000;fill:#000000;fill-opacity:1;fill-rule:evenodd;stroke:none;stroke-width:1px;marker:none;visibility:visible;display:inline;overflow:visible" />
        <path
           d="m 336.68446,744.92834 0.5344,-0.53836 c 0.26943,0.24379 0.37798,0.33166 0.59939,0.53066 l -0.31734,0.32588 1.23871,1.21218 0.34607,-0.35828 c 0.0224,0.02 0.27539,0.24382 0.27539,0.24382 l -0.13198,-0.40584 1.14043,-1.15771 -0.0162,-0.0143 1.36624,-1.47802 -8.28485,-5.91828 c 0,0 -0.36312,0.49815 -0.62311,1.09557 l -1.22653,1.25492 1.10726,1.06689 0.3604,-0.37449 c 0.15959,0.17428 0.34985,0.39904 0.5907,0.6385 l -0.52007,0.52215 1.33595,1.29824 0.53433,-0.53836 c 0.37526,0.35268 0.72796,0.68835 1.12165,1.05069 l -0.50574,0.50595 1.07489,1.03822 z"
           id="path3454"
           style="color:#000000;fill:#000000;fill-opacity:1;fill-rule:evenodd;stroke:none;stroke-width:1px;marker:none;visibility:visible;display:inline;overflow:visible" />
        <path
           d="m 414.42079,776.93967 -0.0363,-0.75766 c 0.36174,-0.0342 0.49985,-0.0549 0.79617,-0.0839 l 0.0261,0.45414 1.73052,-0.0954 -0.0307,-0.49719 c 0.0299,-0.003 0.36585,-0.0386 0.36585,-0.0386 l -0.3885,-0.17662 -0.0841,-1.62292 -0.0215,0.002 -0.16795,-2.00572 -9.95928,2.11619 c 0,0 0.12236,0.60415 0.38757,1.1993 l 0.0977,1.75203 1.53455,-0.0965 -0.0329,-0.5187 c 0.2363,-6e-5 0.5306,0.0113 0.8698,-0.005 l 0.0341,0.73615 1.85961,-0.10905 -0.0364,-0.75766 c 0.5135,-0.0387 0.99926,-0.0723 1.53237,-0.11805 l 0.0318,0.71463 1.49151,-0.092 z"
           id="path3456"
           style="color:#000000;fill:#000000;fill-opacity:1;fill-rule:evenodd;stroke:none;stroke-width:1px;marker:none;visibility:visible;display:inline;overflow:visible" />
        <path
           d="m 426.48178,775.94544 -0.12391,-0.74836 c 0.3554,-0.0759 0.49017,-0.11248 0.78111,-0.17561 l 0.0785,0.44806 1.70781,-0.29525 -0.088,-0.49027 c 0.0293,-0.007 0.35883,-0.0807 0.35883,-0.0807 l -0.40629,-0.13042 -0.27153,-1.60226 -0.0211,0.005 -0.39919,-1.97275 -9.64706,3.2556 c 0,0 0.19151,0.5859 0.52379,1.14633 l 0.30005,1.72893 1.51304,-0.27365 -0.0928,-0.51139 c 0.23472,-0.0274 0.52828,-0.0502 0.86338,-0.10541 l 0.11916,0.72724 1.83446,-0.32372 -0.12385,-0.74836 c 0.50552,-0.0979 0.98407,-0.18753 1.50828,-0.29475 l 0.11441,0.70613 1.47087,-0.26415 z"
           id="path3458"
           style="color:#000000;fill:#000000;fill-opacity:1;fill-rule:evenodd;stroke:none;stroke-width:1px;marker:none;visibility:visible;display:inline;overflow:visible" />
        <path
           d="m 438.77167,773.4483 -0.21284,-0.72807 c 0.34368,-0.11802 0.4731,-0.1705 0.75437,-0.26809 l 0.13177,0.4354 1.66005,-0.4981 -0.1463,-0.47618 c 0.0283,-0.01 0.34663,-0.12317 0.34663,-0.12317 l -0.4191,-0.0807 -0.46187,-1.55808 -0.0204,0.007 -0.63304,-1.91057 -9.18659,4.38998 c 0,0 0.26043,0.55868 0.65762,1.07517 l 0.50536,1.68042 1.46928,-0.45328 -0.15348,-0.49657 c 0.2297,-0.0554 0.51845,-0.11325 0.84447,-0.20827 l 0.20559,0.70769 1.78236,-0.54157 -0.21278,-0.72808 c 0.49015,-0.15791 0.95451,-0.30429 1.46202,-0.47366 l 0.19832,0.68729 1.42853,-0.43879 z"
           id="path3460"
           style="color:#000000;fill:#000000;fill-opacity:1;fill-rule:evenodd;stroke:none;stroke-width:1px;marker:none;visibility:visible;display:inline;overflow:visible" />
        <path
           d="m 329.08894,736.08079 0.59111,-0.47534 c 0.24058,0.27235 0.33864,0.37178 0.53643,0.59426 l -0.35175,0.28841 1.09561,1.34288 0.38393,-0.31741 c 0.0201,0.0224 0.24652,0.27303 0.24652,0.27303 l -0.0859,-0.41801 1.26255,-1.02317 -0.0145,-0.0161 1.52262,-1.31626 -7.57237,-6.80613 c 0,0 -0.41643,0.45451 -0.74153,1.01916 l -1.3589,1.11016 0.9812,1.18384 0.39995,-0.33192 c 0.13916,0.19101 0.3031,0.43559 0.51572,0.70044 l -0.57509,0.46084 1.18266,1.43924 0.59118,-0.47533 c 0.3335,0.39237 0.6465,0.76531 0.99728,1.16933 l -0.55906,0.44634 0.9523,1.15171 z"
           id="path3462"
           style="color:#000000;fill:#000000;fill-opacity:1;fill-rule:evenodd;stroke:none;stroke-width:1px;marker:none;visibility:visible;display:inline;overflow:visible" />
        <path
           d="m 323.08825,727.36026 0.63627,-0.41297 c 0.21171,0.29533 0.29919,0.40419 0.47345,0.64558 l -0.37922,0.25127 0.95388,1.44703 0.41411,-0.27687 c 0.0177,0.0243 0.21756,0.29662 0.21756,0.29662 l -0.0431,-0.42457 1.35976,-0.88992 -0.0128,-0.0175 1.64828,-1.15514 -6.84354,-7.53866 c 0,0 -0.46031,0.40997 -0.84097,0.93876 l -1.46449,0.96669 0.85618,1.27719 0.43155,-0.28965 c 0.11908,0.20411 0.25742,0.46407 0.44206,0.7491 l -0.61884,0.40017 1.03072,1.55171 0.6362,-0.41296 c 0.29206,0.42416 0.56565,0.82689 0.8737,1.2644 l -0.6014,0.38738 0.8306,1.24229 z"
           id="path3464"
           style="color:#000000;fill:#000000;fill-opacity:1;fill-rule:evenodd;stroke:none;stroke-width:1px;marker:none;visibility:visible;display:inline;overflow:visible" />
        <path
           d="m 317.01277,715.97013 0.68242,-0.3312 c 0.17367,0.31923 0.24702,0.43806 0.39012,0.69912 l -0.40736,0.20249 0.76779,1.55379 0.44519,-0.22359 c 0.0145,0.0263 0.17917,0.32122 0.17917,0.32122 l 0.01,-0.42664 1.4593,-0.71511 -0.0106,-0.0189 1.77834,-0.94268 -5.85975,-8.32635 c 0,0 -0.50747,0.34996 -0.95056,0.82768 l -1.57268,0.77836 0.69184,1.37319 0.46405,-0.23412 c 0.0929,0.21725 0.1981,0.49231 0.34616,0.79797 l -0.66358,0.32066 0.83107,1.66715 0.68242,-0.33121 c 0.23742,0.457 0.45919,0.89045 0.71077,1.36265 l -0.64466,0.31011 0.67075,1.3354 z"
           id="path3466"
           style="color:#000000;fill:#000000;fill-opacity:1;fill-rule:evenodd;stroke:none;stroke-width:1px;marker:none;visibility:visible;display:inline;overflow:visible" />
        <path
           d="m 308.21194,666.79301 0.75813,0.0254 c 0.005,0.36338 0.0141,0.50268 0.0189,0.80035 l -0.45477,-0.0109 -0.0457,1.73254 0.49803,0.01 c 6.2e-4,0.03 0.009,0.36774 0.009,0.36774 l 0.20763,-0.37284 1.62439,0.0483 -5.1e-4,-0.0216 2.01275,-0.004 -1.29879,-10.09844 c 0,0 -0.6121,0.0728 -1.22686,0.28867 l -1.75417,-0.0452 -0.0287,1.53736 0.51967,0.009 c -0.0192,0.23552 -0.0545,0.52786 -0.0661,0.86729 l -0.73648,-0.0259 -0.0426,1.86233 0.75812,0.0254 c -0.003,0.51496 -0.009,1.0018 -0.007,1.53684 l -0.71485,-0.0264 -0.0297,1.49409 z"
           id="path3468"
           style="color:#000000;fill:#000000;fill-opacity:1;fill-rule:evenodd;stroke:none;stroke-width:1px;marker:none;visibility:visible;display:inline;overflow:visible" />
        <path
           d="m 309.49243,655.42275 0.75077,0.10829 c -0.0352,0.36171 -0.0411,0.50121 -0.0689,0.79761 l -0.45084,-0.0607 -0.23522,1.71711 0.49396,0.0644 c -0.003,0.0299 -0.0317,0.36647 -0.0317,0.36647 l 0.24724,-0.34784 1.60932,0.22589 0.002,-0.0216 2.00109,0.21632 -0.18476,-10.17993 c 0,0 -0.61638,0.005 -1.25108,0.15253 l -1.73867,-0.23708 -0.1969,1.52496 0.51551,0.0663 c -0.0449,0.232 -0.11195,0.51872 -0.16072,0.85483 l -0.72922,-0.10643 -0.24638,1.84645 0.75077,0.1083 c -0.0596,0.5115 -0.11897,0.99475 -0.17534,1.52682 l -0.70766,-0.10457 -0.19316,1.48184 z"
           id="path3470"
           style="color:#000000;fill:#000000;fill-opacity:1;fill-rule:evenodd;stroke:none;stroke-width:1px;marker:none;visibility:visible;display:inline;overflow:visible" />
        <path
           d="m 311.99129,644.32975 0.73452,0.18939 c -0.0743,0.35572 -0.0954,0.49376 -0.15533,0.78537 l -0.44155,-0.10939 -0.42075,1.6813 0.48401,0.11778 c -0.006,0.0294 -0.0714,0.36085 -0.0714,0.36085 l 0.28363,-0.31887 1.57515,0.39976 0.004,-0.0212 1.96561,0.43287 0.92461,-10.13953 c 0,0 -0.61334,-0.0618 -1.26027,0.0154 l -1.70254,-0.42495 -0.36176,1.49447 0.50522,0.12198 c -0.0698,0.22574 -0.16772,0.50345 -0.25277,0.83225 l -0.71332,-0.18518 -0.44594,1.80865 0.73454,0.18939 c -0.11495,0.50197 -0.22658,0.97588 -0.34054,1.49865 l -0.69206,-0.18099 -0.35334,1.45201 z"
           id="path3472"
           style="color:#000000;fill:#000000;fill-opacity:1;fill-rule:evenodd;stroke:none;stroke-width:1px;marker:none;visibility:visible;display:inline;overflow:visible" />
        <path
           d="m 316.18166,632.36648 0.70608,0.27708 c -0.11689,0.34409 -0.15453,0.47855 -0.24942,0.76074 l -0.42502,-0.16215 -0.62162,1.61784 0.46615,0.17562 c -0.009,0.0285 -0.11464,0.34952 -0.11464,0.34952 l 0.32024,-0.2821 1.51505,0.5879 0.007,-0.0206 1.89857,0.66813 2.14782,-9.95248 c 0,0 -0.60127,-0.13576 -1.25278,-0.13758 l -1.63838,-0.62834 -0.54041,1.43954 0.48672,0.18237 c -0.0967,0.21559 -0.22761,0.47938 -0.35194,0.79543 l -0.68558,-0.27035 -0.66201,1.74121 0.70608,0.27708 c -0.17494,0.48433 -0.34329,0.9412 -0.51977,1.44629 l -0.66501,-0.26361 -0.52687,1.39842 z"
           id="path3474"
           style="color:#000000;fill:#000000;fill-opacity:1;fill-rule:evenodd;stroke:none;stroke-width:1px;marker:none;visibility:visible;display:inline;overflow:visible" />
        <path
           d="m 321.84635,620.90561 0.66692,0.3614 c -0.15816,0.32719 -0.21196,0.45604 -0.3407,0.72449 l -0.40194,-0.21292 -0.81494,1.52963 0.44117,0.23134 c -0.0128,0.0272 -0.15647,0.33287 -0.15647,0.33287 l 0.35227,-0.2408 1.43177,0.76884 0.009,-0.0196 1.80255,0.89539 3.3494,-9.61492 c 0,0 -0.58016,-0.20831 -1.22661,-0.28983 l -1.54918,-0.82407 -0.71242,1.36261 0.46071,0.24055 c -0.12237,0.20214 -0.28457,0.44793 -0.44663,0.74639 l -0.6473,-0.35218 -0.8701,1.64711 0.66686,0.3614 c -0.23287,0.45928 -0.45584,0.89213 -0.69281,1.37182 l -0.62776,-0.34299 -0.694,1.32345 z"
           id="path3476"
           style="color:#000000;fill:#000000;fill-opacity:1;fill-rule:evenodd;stroke:none;stroke-width:1px;marker:none;visibility:visible;display:inline;overflow:visible" />
        <path
           d="m 328.67179,610.49024 0.61905,0.43831 c -0.19601,0.30601 -0.26476,0.42752 -0.42451,0.67872 l -0.37375,-0.25932 -0.99143,1.42162 0.41046,0.28226 c -0.016,0.0254 -0.19509,0.31185 -0.19509,0.31185 l 0.37851,-0.1971 1.32991,0.934 0.0115,-0.0183 1.68302,1.10386 4.47146,-9.1472 c 0,0 -0.55118,-0.27597 -1.18329,-0.43395 l -1.43998,-1.00285 -0.86972,1.268 0.42878,0.29373 c -0.14558,0.18612 -0.33595,0.41083 -0.53239,0.68786 l -0.60073,-0.42684 -1.06021,1.53168 0.61905,0.43831 c -0.28603,0.42824 -0.55894,0.83143 -0.8514,1.27946 l -0.58242,-0.41536 -0.84679,1.2313 z"
           id="path3478"
           style="color:#000000;fill:#000000;fill-opacity:1;fill-rule:evenodd;stroke:none;stroke-width:1px;marker:none;visibility:visible;display:inline;overflow:visible" />
        <path
           d="m 337.10259,600.53032 0.55947,0.51219 c -0.23263,0.27914 -0.31607,0.39111 -0.50598,0.62039 l -0.3384,-0.30396 -1.16119,1.28669 0.37197,0.33131 c -0.019,0.0232 -0.23248,0.28505 -0.23248,0.28505 l 0.4002,-0.14829 1.20284,1.09275 0.0136,-0.0168 1.53207,1.30538 5.57862,-8.51724 c 0,0 -0.51239,-0.34264 -1.11981,-0.57831 l -1.30349,-1.17481 -1.02127,1.14945 0.38872,0.345 c -0.16768,0.16647 -0.38459,0.36567 -0.61406,0.61599 l -0.54279,-0.49852 -1.24315,1.38729 0.55948,0.51219 c -0.33723,0.38919 -0.65838,0.75515 -1.00452,1.16314 l -0.52597,-0.48485 -0.99391,1.11593 z"
           id="path3480"
           style="color:#000000;fill:#000000;fill-opacity:1;fill-rule:evenodd;stroke:none;stroke-width:1px;marker:none;visibility:visible;display:inline;overflow:visible" />
        <path
           d="m 308.25868,679.49676 0.75558,-0.067 c 0.0488,0.36011 0.0751,0.49724 0.11604,0.79212 l -0.45271,0.0445 0.16528,1.72525 0.49554,-0.0507 c 0.004,0.0297 0.0533,0.36395 0.0533,0.36395 l 0.16077,-0.39532 1.6182,-0.14959 -0.003,-0.0214 1.99727,-0.24888 -2.51688,-9.8656 c 0,0 -0.59871,0.14667 -1.18267,0.43567 l -1.74665,0.16842 0.15846,1.52944 0.51695,-0.0539 c 0.01,0.2361 0.0101,0.53056 0.0398,0.86889 l -0.73418,0.0638 0.18411,1.8537 0.75558,-0.067 c 0.0594,0.51152 0.11258,0.9955 0.17987,1.52629 l -0.71277,0.0607 0.1522,1.48662 z"
           id="path3482"
           style="color:#000000;fill:#000000;fill-opacity:1;fill-rule:evenodd;stroke:none;stroke-width:1px;marker:none;visibility:visible;display:inline;overflow:visible" />
        <path
           d="m 309.73948,691.50768 0.74274,-0.15403 c 0.0902,0.35203 0.1322,0.48519 0.20703,0.77334 l -0.44453,0.0966 0.36402,1.69449 0.48633,-0.10779 c 0.008,0.029 0.0951,0.35532 0.0951,0.35532 l 0.11389,-0.41127 1.59,-0.33605 -0.006,-0.0209 1.95501,-0.47856 -3.6428,-9.50764 c 0,0 -0.57769,0.21505 -1.12423,0.56975 l -1.71539,0.36961 0.33456,1.50078 0.50723,-0.11338 c 0.0369,0.23339 0.0715,0.52583 0.14021,0.85843 l -0.72184,0.14843 0.3976,1.8199 0.74273,-0.15404 c 0.11829,0.50121 0.22715,0.97576 0.35547,1.49519 l -0.70093,0.14284 0.32337,1.45898 z"
           id="path3484"
           style="color:#000000;fill:#000000;fill-opacity:1;fill-rule:evenodd;stroke:none;stroke-width:1px;marker:none;visibility:visible;display:inline;overflow:visible" />
        <path
           d="m 312.73122,703.68662 0.71886,-0.24208 c 0.13178,0.33867 0.18951,0.46582 0.29834,0.74291 l -0.42972,0.14926 0.56482,1.63855 0.46982,-0.16539 c 0.0111,0.0279 0.13713,0.34134 0.13713,0.34134 l 0.0637,-0.42198 1.53815,-0.52445 -0.008,-0.0201 1.88345,-0.70976 -4.75766,-9.00167 c 0,0 -0.54769,0.28284 -1.0477,0.70057 l -1.65863,0.57284 0.51228,1.44977 0.48996,-0.17345 c 0.0646,0.22728 0.13411,0.51344 0.24223,0.8354 l -0.69881,0.234 0.61316,1.75902 0.71888,-0.24207 c 0.17759,0.48338 0.34261,0.94144 0.53238,1.44171 l -0.67871,0.22594 0.49614,1.40962 z"
           id="path3486"
           style="color:#000000;fill:#000000;fill-opacity:1;fill-rule:evenodd;stroke:none;stroke-width:1px;marker:none;visibility:visible;display:inline;overflow:visible" />
        <path
           d="m 345.63595,592.58346 0.49889,0.57144 c -0.26247,0.25141 -0.35781,0.35338 -0.57211,0.56004 l -0.3024,-0.33984 -1.29751,1.14903 0.33264,0.37076 c -0.0215,0.0209 -0.2628,0.25731 -0.2628,0.25731 l 0.41421,-0.10269 1.07331,1.2202 0.0155,-0.0151 1.37672,1.46824 6.4946,-7.84127 c 0,0 -0.47101,-0.3977 -1.04831,-0.69971 l -1.16417,-1.31296 -1.14325,1.02826 0.34783,0.38623 c -0.18521,0.14672 -0.42298,0.32046 -0.67904,0.54359 l -0.48369,-0.55598 -1.39028,1.23984 0.49882,0.57145 c -0.37857,0.3491 -0.73854,0.67692 -1.12807,1.04373 l -0.46858,-0.54053 -1.11229,0.998 z"
           id="path3488"
           style="color:#000000;fill:#000000;fill-opacity:1;fill-rule:evenodd;stroke:none;stroke-width:1px;marker:none;visibility:visible;display:inline;overflow:visible" />
        <path
           d="m 355.37662,585.25046 0.41023,0.63806 c -0.2963,0.21048 -0.40553,0.29744 -0.64759,0.47065 l -0.24969,-0.38028 -1.45114,0.9476 0.27506,0.4153 c -0.0244,0.0176 -0.2976,0.21624 -0.2976,0.21624 l 0.42484,-0.0412 0.88401,1.36363 0.0175,-0.0127 1.14792,1.65324 7.56833,-6.81075 c 0,0 -0.40802,-0.46211 -0.93515,-0.84505 l -0.96029,-1.46865 -1.2809,0.85063 0.28772,0.4328 c -0.20462,0.11816 -0.46518,0.25537 -0.75095,0.4388 l -0.39758,-0.62056 -1.55606,1.02394 0.41016,0.63805 c -0.42539,0.2902 -0.82935,0.56204 -1.26817,0.86814 l -0.38479,-0.60305 -1.24587,0.82519 z"
           id="path3490"
           style="color:#000000;fill:#000000;fill-opacity:1;fill-rule:evenodd;stroke:none;stroke-width:1px;marker:none;visibility:visible;display:inline;overflow:visible" />
        <path
           d="m 365.65009,579.56062 0.35792,0.66879 c -0.31207,0.18614 -0.42789,0.2641 -0.68311,0.41743 l -0.21848,-0.39902 -1.5222,0.82868 0.24104,0.43594 c -0.0257,0.0156 -0.31392,0.19178 -0.31392,0.19178 l 0.42676,-0.007 0.77224,1.42987 0.0185,-0.0113 1.01231,1.73966 8.08802,-6.18453 c 0,0 -0.36976,-0.4932 -0.8646,-0.91703 l -0.83994,-1.54065 -1.34477,0.7456 0.25229,0.4544 c -0.21342,0.10144 -0.48406,0.21741 -0.78367,0.37742 l -0.34661,-0.65031 -1.63297,0.89636 0.35792,0.66878 c -0.44724,0.2553 -0.87163,0.494 -1.33352,0.76408 l -0.33536,-0.63186 -1.3078,0.72304 z"
           id="path3492"
           style="color:#000000;fill:#000000;fill-opacity:1;fill-rule:evenodd;stroke:none;stroke-width:1px;marker:none;visibility:visible;display:inline;overflow:visible" />
        <path
           d="m 379.3588,573.5915 0.16842,0.73962 c -0.35024,0.097 -0.48254,0.14158 -0.7692,0.222 l -0.10517,-0.44257 -1.68715,0.39683 0.11724,0.48414 c -0.0289,0.008 -0.35338,0.102 -0.35338,0.102 l 0.41338,0.10589 0.36681,1.58316 0.0208,-0.006 0.51638,1.94536 9.43516,-3.82657 c 0,0 -0.22619,-0.5734 -0.59146,-1.11295 l -0.40278,-1.70789 -1.49407,0.36361 0.12325,0.50493 c -0.23266,0.0414 -0.52437,0.0817 -0.85559,0.15684 l -0.16241,-0.71882 -1.81181,0.43283 0.16843,0.73961 c -0.49881,0.12799 -0.97117,0.24604 -1.488,0.38441 l -0.15648,-0.69803 -1.4524,0.35161 z"
           id="path3494"
           style="color:#000000;fill:#000000;fill-opacity:1;fill-rule:evenodd;stroke:none;stroke-width:1px;marker:none;visibility:visible;display:inline;overflow:visible" />
        <path
           d="m 413.88916,570.92984 c -55.9695,-1.16897 -102.71452,44.46571 -103.89539,101.00451 -1.18087,56.53872 43.64723,102.68689 99.61673,103.85586 55.96949,1.16897 103.07154,-44.8081 104.25239,-101.34684 1.18086,-56.53882 -44.00424,-102.34456 -99.97373,-103.51353 z m -0.73668,17.65811 c 44.11592,0.57161 79.26522,35.29219 78.06907,88.37561 -4.8004,41.55257 -27.48491,74.00248 -78.39253,78.87719 -51.16925,-0.70237 -83.7654,-50.75492 -82.36455,-84.33344 -0.51293,-34.59648 36.83843,-84.22677 82.68801,-82.91936 z"
           id="path3496"
           style="color:#000000;fill:#000000;fill-opacity:1;fill-rule:evenodd;stroke:none;stroke-width:1px;marker:none;visibility:visible;display:inline;overflow:visible" />
        <path
           d="m 415.07334,580.40672 c -50.75173,-1.05999 -92.81602,39.81828 -93.89013,91.24276 -1.07404,51.4245 39.24685,94.02341 89.99857,95.08346 50.75172,1.05998 92.81608,-39.81831 93.89005,-91.24281 1.07404,-51.4245 -39.24677,-94.02342 -89.99849,-95.08341 z m 0.16868,7.28601 c 40.92486,0.85475 78.69446,34.65749 77.6084,86.65787 -0.867,41.51132 -30.38189,82.94052 -82.90668,83.28577 -40.93283,0.26906 -81.64436,-44.14375 -80.77737,-85.65507 0.86699,-41.51132 39.55671,-85.26015 86.07565,-84.28857 z"
           id="path3498"
           style="color:#000000;fill:#000000;fill-opacity:1;fill-rule:evenodd;stroke:none;stroke-width:1px;marker:none;visibility:visible;display:inline;overflow:visible" />
      </g>
      <path
         d="m 421.197,581.58142 c -50.75173,-1.05999 -91.79064,41.2472 -92.86468,92.67169 -1.07403,51.42452 39.93682,94.19939 90.68855,95.25944 50.75171,1.05997 92.9445,-39.84609 94.10335,-91.26875 1.19615,-53.08341 -41.17551,-95.60239 -91.92722,-96.66238 z m 1.4876,4.22379 c 48.33932,1.00961 85.69518,41.78985 84.67555,90.60892 -1.01962,48.81911 -39.38658,90.44817 -87.72585,89.43857 -48.33933,-1.00966 -88.50734,-41.49063 -87.48771,-90.30973 1.01968,-48.81908 42.19874,-90.74735 90.53801,-89.73776 z"
         clip-path="url(#clipPath7142)"
         id="path3500"
         style="color:#000000;fill:#ffffff;fill-opacity:1;fill-rule:evenodd;stroke:none;stroke-width:1px;marker:none;visibility:visible;display:inline;overflow:visible" />
      <path
         d="m 421.17748,680.71632 0.712,1.43705 2.83925,0.24481 1.81178,-0.88967 0.41474,-2.0937 -0.77123,-1.56196 -2.0782,-1.15643 -1.56326,0.83302 -1.13577,1.0893 -0.22931,2.09758 z"
         clip-path="url(#clipPath7138)"
         id="path3552"
         style="color:#000000;fill:#858585;fill-opacity:1;fill-rule:evenodd;stroke:#000000;stroke-width:0.34619638;stroke-linecap:butt;stroke-linejoin:miter;stroke-miterlimit:4;stroke-opacity:1;stroke-dasharray:none;stroke-dashoffset:0;marker:none;visibility:visible;display:inline;overflow:visible" />
      <path
         d="m 424.46229,680.35209 c 0.6631,0.81769 1.39189,1.45125 1.34945,0.52285 -0.0424,-0.9284 -0.40297,-1.4306 -0.84078,-1.1924 -0.43781,0.23818 -0.44297,0.48541 -0.50867,0.66955 z"
         clip-path="url(#clipPath7134)"
         id="path3560"
         style="fill:none;stroke:#000000;stroke-width:0.69239277px;stroke-linecap:butt;stroke-linejoin:miter;stroke-opacity:1" />
      <path
         d="m 736.5275,578.28497 c 0,0.59276 -0.53706,1.07329 -1.19956,1.07329 -0.66249,0 -1.19955,-0.48053 -1.19955,-1.07329 0,-0.59276 0.53706,-1.07328 1.19955,-1.07328 0.6625,0 1.19956,0.48052 1.19956,1.07328 z"
         transform="matrix(0.692242,0.01445798,-0.01445798,0.692242,-73.34868,273.9507)"
         clip-path="url(#clipPath7130)"
         id="path3562"
         style="color:#000000;fill:#ffffff;fill-opacity:1;fill-rule:evenodd;stroke:none;stroke-width:0.5;marker:none;visibility:visible;display:inline;overflow:visible" />
      <path
         d="m 736.5275,578.28497 c 0,0.59276 -0.53706,1.07329 -1.19956,1.07329 -0.66249,0 -1.19955,-0.48053 -1.19955,-1.07329 0,-0.59276 0.53706,-1.07328 1.19955,-1.07328 0.6625,0 1.19956,0.48052 1.19956,1.07328 z"
         transform="matrix(0.692242,0.01445798,-0.01445798,0.692242,-70.34188,268.1546)"
         clip-path="url(#clipPath7126)"
         id="path3564"
         style="color:#000000;fill:#ffffff;fill-opacity:1;fill-rule:evenodd;stroke:none;stroke-width:0.5;marker:none;visibility:visible;display:inline;overflow:visible" />
      <path
         d="m 736.5275,578.28497 c 0,0.59276 -0.53706,1.07329 -1.19956,1.07329 -0.66249,0 -1.19955,-0.48053 -1.19955,-1.07329 0,-0.59276 0.53706,-1.07328 1.19955,-1.07328 0.6625,0 1.19956,0.48052 1.19956,1.07328 z"
         transform="matrix(0.692242,0.01445798,-0.01445798,0.692242,-72.31189,261.9921)"
         clip-path="url(#clipPath7122)"
         id="path3566"
         style="color:#000000;fill:#ffffff;fill-opacity:1;fill-rule:evenodd;stroke:none;stroke-width:0.5;marker:none;visibility:visible;display:inline;overflow:visible" />
      <path
         d="m 736.5275,578.28497 c 0,0.59276 -0.53706,1.07329 -1.19956,1.07329 -0.66249,0 -1.19955,-0.48053 -1.19955,-1.07329 0,-0.59276 0.53706,-1.07328 1.19955,-1.07328 0.6625,0 1.19956,0.48052 1.19956,1.07328 z"
         transform="matrix(0.692242,0.01445798,-0.01445798,0.692242,-77.59089,259.3459)"
         clip-path="url(#clipPath7118)"
         id="path3568"
         style="color:#000000;fill:#ffffff;fill-opacity:1;fill-rule:evenodd;stroke:none;stroke-width:0.5;marker:none;visibility:visible;display:inline;overflow:visible" />
      <path
         d="m 736.5275,578.28497 c 0,0.59276 -0.53706,1.07329 -1.19956,1.07329 -0.66249,0 -1.19955,-0.48053 -1.19955,-1.07329 0,-0.59276 0.53706,-1.07328 1.19955,-1.07328 0.6625,0 1.19956,0.48052 1.19956,1.07328 z"
         transform="matrix(0.692242,0.01445798,-0.01445798,0.692242,-79.33628,275.9243)"
         clip-path="url(#clipPath7114)"
         id="path3570"
         style="color:#000000;fill:#ffffff;fill-opacity:1;fill-rule:evenodd;stroke:none;stroke-width:0.5;marker:none;visibility:visible;display:inline;overflow:visible" />
      <path
         d="m 736.5275,578.28497 c 0,0.59276 -0.53706,1.07329 -1.19956,1.07329 -0.66249,0 -1.19955,-0.48053 -1.19955,-1.07329 0,-0.59276 0.53706,-1.07328 1.19955,-1.07328 0.6625,0 1.19956,0.48052 1.19956,1.07328 z"
         transform="matrix(0.692242,0.01445798,-0.01445798,0.692242,-85.22713,273.2653)"
         clip-path="url(#clipPath7110)"
         id="path3572"
         style="color:#000000;fill:#ffffff;fill-opacity:1;fill-rule:evenodd;stroke:none;stroke-width:0.5;marker:none;visibility:visible;display:inline;overflow:visible" />
      <path
         d="m 736.5275,578.28497 c 0,0.59276 -0.53706,1.07329 -1.19956,1.07329 -0.66249,0 -1.19955,-0.48053 -1.19955,-1.07329 0,-0.59276 0.53706,-1.07328 1.19955,-1.07328 0.6625,0 1.19956,0.48052 1.19956,1.07328 z"
         transform="matrix(0.692242,0.01445798,-0.01445798,0.692242,-91.20163,268.331)"
         clip-path="url(#clipPath7106)"
         id="path3574"
         style="color:#000000;fill:#ffffff;fill-opacity:1;fill-rule:evenodd;stroke:none;stroke-width:0.5;marker:none;visibility:visible;display:inline;overflow:visible" />
    </g>
  </g>
</svg>
